<?xml version="1.0" encoding="UTF-8"?><svg id="Layer_1" xmlns="http://www.w3.org/2000/svg" viewBox="0 0 512 512"><path d="M28.5,256c0,34.91.09,63.46.2,63.46.17,0,23.63-4.35,26.51-4.92l1.5-.29v-46.59h17.84v-4.26c0-2.33.09-8.4.2-13.53l.17-9.27h-18.22v-20.43h10.5c5.78,0,10.5-.06,10.5-.14,0-.32,2.3-24.89,2.45-26.13l.17-1.35H28.5v63.46Z"/><path d="M458.98,196.25l-22.97,1.9v114.66l.95.14c.83.14,45.3,3.37,46.19,3.34.26,0,.35-3.05.35-14.25v-14.25h-19.57v-20.72h16.69v-24.75h-17.27v-16.4l.66-.12c.35-.09,3.28-.2,6.53-.32,3.25-.09,7.48-.23,9.44-.35l3.51-.17v-30.71l-.78.03c-.46.03-11.14.89-23.74,1.96Z"/><path d="M311.54,200.23c.29,2.88,3.57,46.25,3.51,46.31-.03.06-4.26-10.33-9.41-23.08-5.12-12.75-9.44-23.31-9.55-23.51-.17-.32-8.12,1.15-21.15,3.91l-1.24.26v98.94h25.61l-.14-2.07c-.29-3.86-1.35-35.74-1.24-37.01.09-1.12.95.83,9.12,20.58,4.95,12,9.15,21.93,9.27,22.1.17.17,4.17-.09,10.96-.66,5.9-.52,10.73-.98,10.73-1.01.03-.03-.12-20.78-.32-46.1s-.37-49.24-.37-53.18l-.03-7.11h-25.93l.17,1.64Z"/><path d="M108.94,200.34c-17.21,1.15-26.68,12.92-29.67,36.81-.6,4.95-.86,21.76-.43,27.63,1.44,19.05,6.59,31.43,15.74,37.73,4.92,3.37,12.32,5.18,19.63,4.75,8.32-.46,13.99-2.82,19.08-7.91,4.17-4.17,6.45-8.09,8.63-14.76,3.05-9.32,4.43-23.25,3.74-37.76-.78-16.23-3.22-26.33-8.26-34.07-4.81-7.37-12.4-11.77-21.27-12.32-1.41-.09-2.91-.17-3.31-.23-.4-.03-2.13.03-3.89.14ZM113,222.96c2.1,2.27,2.99,11.34,2.99,30.74,0,23.89-1.5,33.82-4.78,31.69-1.41-.95-2.48-5.58-2.99-13.27-.37-5.61-.37-31.31,0-36.69.55-7.6,1.53-11.8,2.99-12.81.81-.58.95-.55,1.78.35Z"/><path d="M149.37,252.66v52.41h26.39l.17-3.65c.12-2.04.35-8.66.52-14.76.17-6.1.4-11.45.52-11.89.14-.6,1.38,3.28,5.18,16.4,2.76,9.47,5.09,17.33,5.21,17.44.23.26,27.23-1.87,27.51-2.16.09-.12-2.91-9.53-6.65-20.98l-6.79-20.78,1.44-1.27c4.78-4.17,8.72-12.23,9.84-20.2.49-3.48.17-12.12-.58-15.31-2.88-12.52-10.5-22.25-20.23-25.87-4.23-1.55-3.89-1.53-23.89-1.64l-18.65-.12v52.38ZM179.04,225.09c2.04,1.01,3.71,3.6,4.6,7.17.6,2.39.52,9.96-.14,12.38-1.24,4.55-3.42,7.19-6.71,8.2l-.66.17v-28.81l.95.2c.49.09,1.38.4,1.96.69Z"/><path d="M213.55,213.98v13.38h14.68v77.13h27.63v-72.52h14.97v-26.76l-.63-.12c-.6-.14-55.49-4.52-56.26-4.49-.29,0-.37,2.88-.37,13.38Z"/><path d="M343.35,255.71v52.23h28.49v-104.47h-28.49v52.23Z"/><path d="M404.36,207.1c-15.6.83-28.58,1.53-28.84,1.53-.49.03-.52.86-.52,13.56v13.53h14.68v75.69h27.92v-78.86h15.54v-13.53c0-7.45-.09-13.5-.2-13.5-.14.03-12.98.72-28.58,1.58Z"/></svg>