<?xml version="1.0" encoding="UTF-8"?>
<svg id="Layer_1" xmlns="http://www.w3.org/2000/svg" version="1.1" xmlns:xlink="http://www.w3.org/1999/xlink" viewBox="0 0 512 512">
  <!-- Generator: Adobe Illustrator 30.1.0, SVG Export Plug-In . SVG Version: 2.1.1 Build 136)  -->
  <defs>
    <style>
      .st0 {
        fill: #dd2529;
      }

      .st1 {
        fill: none;
      }

      .st2 {
        fill: url(#linear-gradient);
      }

      .st3 {
        clip-path: url(#clippath);
      }
    </style>
    <clipPath id="clippath">
      <path class="st1" d="M67.9,214h196.7v-11.9c0-4-3.2-7.2-7.2-7.2H75.1c-4,0-7.2,3.2-7.2,7.2,0,0,0,11.9,0,11.9Z"/>
    </clipPath>
    <linearGradient id="linear-gradient" x1="67.9" y1="309.6" x2="264.6" y2="309.6" gradientTransform="translate(0 514) scale(1 -1)" gradientUnits="userSpaceOnUse">
      <stop offset="0" stop-color="#66bfec"/>
      <stop offset=".5" stop-color="#d487b1"/>
      <stop offset="1" stop-color="#f47b43"/>
    </linearGradient>
  </defs>
  <g class="st3">
    <rect class="st2" x="67.9" y="194.9" width="196.7" height="19.1"/>
  </g>
  <polygon class="st0" points="28.5 194.9 28.5 315.8 52.9 315.8 52.9 285.6 59.9 285.6 76.5 315.8 105.6 315.8 79.6 273.8 105.6 238.1 76.2 238.1 57.4 267.4 52.9 267.4 52.9 194.9 28.5 194.9"/>
  <path class="st0" d="M165.9,289.2c-1.3,2.4-3.2,4.4-5.6,6-2.4,1.5-5.1,2.3-8.2,2.3s-6.9-1.1-8.7-3.3c-1.8-2.2-2.7-5.8-2.7-10.9v-45.2h-24.6v49.3c0,10.1,2.4,17.5,7.2,22.4,4.8,4.8,11.5,7.2,20.2,7.2s9.9-1,13.8-3c4-2,7.2-4.7,9.7-8v1.2c0,2.8.8,4.9,2.3,6.4,1.5,1.5,3.7,2.3,6.4,2.3h14.7v-77.6h-24.6v51.1h0Z"/>
  <path class="st0" d="M241.6,241.3c-3.8,2.9-6.6,7-8.4,12.2v-6.6c-.1-2.8-.9-4.9-2.4-6.4-1.5-1.5-3.6-2.2-6.4-2.2h-13.5v77.6h24.6v-41.7c2.8-4.9,5.9-8.4,9.5-10.4,3.5-2,7.4-3,11.6-3s5.5.3,7.9.8v-23.1c-3.4-1-6.6-1.6-9.4-1.6-5.2,0-9.7,1.5-13.5,4.5"/>
  <rect class="st0" x="279.8" y="194.9" width="24.4" height="120.9"/>
  <path class="st0" d="M377.7,240.6c-5.9-3.2-13-4.9-21.1-4.9s-15.1,1.6-21.1,4.9c-5.9,3.2-10.5,7.9-13.7,14.1-3.2,6.2-4.8,13.5-4.8,21.9s1.6,15.6,4.8,21.6c3.1,6.1,7.7,10.8,13.6,14,5.9,3.3,13,4.9,21.2,4.9s15.3-1.6,21.2-4.9c5.9-3.3,10.5-7.9,13.6-14,3.2-6.1,4.8-13.3,4.8-21.6s-1.6-15.8-4.8-21.9c-3.2-6.1-7.8-10.9-13.7-14.1M367.7,292.1c-2.6,3.5-6.2,5.3-11,5.3s-8.4-1.8-11-5.3c-2.5-3.5-3.9-8.6-3.9-15.3s1.3-12.1,3.9-15.8c2.6-3.7,6.2-5.6,11-5.6s8.4,1.9,11,5.6c2.6,3.7,3.9,9,3.9,15.8s-1.3,11.8-3.9,15.3Z"/>
  <path class="st0" d="M476.6,244.2c-4.6-4.7-10.8-7-18.7-7s-10.6,1.1-15,3.3c-4.4,2.2-8,5.2-10.8,9.1v-.6c0,0,0-2.1,0-2.1,0-2.8-.8-4.9-2.2-6.4-1.5-1.5-3.7-2.2-6.5-2.2h-14.2v77.6h24.7v-50.5c1.3-2.5,3.2-4.5,5.9-6.1,2.7-1.6,5.4-2.3,8.2-2.3,4,0,6.8,1,8.5,3.1,1.7,2.1,2.5,5.7,2.5,10.7v45h24.6v-48c0-11-2.3-18.9-6.9-23.6"/>
  <g>
    <path class="st1" d="M59.2,269.5v-37.1h7.8v37.1h-7.8Z"/>
    <path class="st1" d="M87,269.9c-2.9,0-5.4-.6-7.6-1.8-2.2-1.2-4-2.8-5.2-4.9-1.3-2.1-1.9-4.5-1.9-7.1s.6-5.1,1.9-7.2c1.3-2.1,3-3.7,5.2-4.9,2.2-1.2,4.8-1.8,7.6-1.8s5.4.6,7.6,1.8c2.2,1.2,4,2.8,5.2,4.9,1.3,2.1,1.9,4.5,1.9,7.2s-.6,5-1.9,7.1-3,3.7-5.2,4.9c-2.2,1.2-4.8,1.8-7.6,1.8ZM87,263.5c1.3,0,2.5-.3,3.5-.9,1-.6,1.8-1.5,2.5-2.6.6-1.1.9-2.4.9-4s-.3-2.9-.9-4c-.6-1.1-1.4-2-2.5-2.6-1-.6-2.2-.9-3.5-.9s-2.5.3-3.5.9c-1,.6-1.9,1.5-2.5,2.6s-.9,2.4-.9,4,.3,2.9.9,4,1.4,2,2.5,2.6c1,.6,2.2.9,3.5.9Z"/>
    <path class="st1" d="M118.4,268.2c-2.5,0-4.8-.5-6.8-1.6-2-1.1-3.6-2.6-4.9-4.6s-1.8-4.2-1.8-6.8.6-4.9,1.8-6.9c1.2-2,2.8-3.5,4.9-4.5,2-1.1,4.3-1.6,6.8-1.6s4.3.5,6,1.4c1.7.9,3.1,2.3,4.1,4.2,1,1.9,1.4,4.4,1.4,7.4s-.5,5.4-1.4,7.3c-1,1.9-2.3,3.3-4.1,4.3s-3.7,1.4-6,1.4ZM119.6,279.6c-2.5,0-5-.3-7.3-.9-2.3-.6-4.3-1.5-5.9-2.8l3.1-5.6c1.1.9,2.6,1.7,4.3,2.2s3.5.8,5.2.8c2.8,0,4.8-.6,6-1.8s1.9-3.1,1.9-5.5v-4l.5-6.8v-6.8c0,0,0-5.8,0-5.8h7.4v22.4c0,5-1.3,8.7-3.9,11.1-2.6,2.4-6.3,3.5-11.2,3.5ZM120,261.8c1.4,0,2.6-.3,3.6-.8,1.1-.5,1.9-1.3,2.5-2.3.6-1,.9-2.2.9-3.4s-.3-2.5-.9-3.5c-.6-1-1.4-1.8-2.5-2.3-1.1-.6-2.3-.8-3.6-.8s-2.6.3-3.7.8c-1.1.5-1.9,1.3-2.5,2.3-.6,1-.9,2.1-.9,3.5s.3,2.4.9,3.4,1.5,1.8,2.5,2.3c1.1.6,2.3.8,3.7.8Z"/>
    <path class="st1" d="M154.8,269.9c-2.9,0-5.4-.6-7.6-1.8-2.2-1.2-4-2.8-5.2-4.9s-1.9-4.5-1.9-7.1.6-5.1,1.9-7.2c1.3-2.1,3-3.7,5.2-4.9,2.2-1.2,4.8-1.8,7.6-1.8s5.4.6,7.6,1.8c2.2,1.2,4,2.8,5.2,4.9,1.3,2.1,1.9,4.5,1.9,7.2s-.6,5-1.9,7.1c-1.3,2.1-3,3.7-5.2,4.9-2.2,1.2-4.8,1.8-7.6,1.8ZM154.8,263.5c1.3,0,2.5-.3,3.5-.9,1-.6,1.9-1.5,2.5-2.6.6-1.1.9-2.4.9-4s-.3-2.9-.9-4c-.6-1.1-1.4-2-2.5-2.6s-2.2-.9-3.5-.9-2.5.3-3.5.9-1.9,1.5-2.5,2.6c-.6,1.1-.9,2.4-.9,4s.3,2.9.9,4c.6,1.1,1.4,2,2.5,2.6,1,.6,2.2.9,3.5.9Z"/>
    <path class="st1" d="M183.8,269.9c-2.3,0-4.5-.3-6.6-.8-2.1-.6-3.8-1.2-5-2.1l2.6-5.6c1.2.8,2.7,1.4,4.4,1.9,1.7.5,3.3.7,5,.7s3.1-.2,3.8-.7c.8-.4,1.1-1,1.1-1.8s-.3-1.1-.9-1.4c-.6-.3-1.4-.6-2.3-.7-1-.2-2-.3-3.2-.5-1.1-.2-2.3-.4-3.5-.7-1.2-.3-2.2-.7-3.2-1.3s-1.7-1.3-2.3-2.3-.9-2.2-.9-3.8.5-3.2,1.5-4.5c1-1.3,2.4-2.3,4.3-3.1s4.1-1.1,6.7-1.1,3.7.2,5.6.6c1.9.4,3.5,1,4.8,1.8l-2.6,5.5c-1.3-.8-2.6-1.3-3.9-1.6-1.3-.3-2.6-.4-3.8-.4s-3,.2-3.8.7-1.2,1.1-1.2,1.8.3,1.2.9,1.5c.6.3,1.4.6,2.3.8s2,.4,3.2.5c1.2.2,2.3.4,3.5.7,1.2.3,2.2.7,3.2,1.3,1,.6,1.7,1.3,2.3,2.2.6,1,.9,2.2.9,3.7s-.5,3.1-1.5,4.4-2.4,2.3-4.3,3-4.2,1.1-6.9,1.1Z"/>
    <path class="st1" d="M201.3,269.5v-37.1h7.8v17.7l-1.8-2.2c1-1.8,2.4-3.2,4.2-4.2s3.8-1.4,6.2-1.4,4,.4,5.7,1.3c1.7.9,3,2.2,4,3.9s1.5,4,1.5,6.7v15.4h-7.8v-14.2c0-2.2-.5-3.8-1.4-4.8s-2.3-1.5-4-1.5-2.3.3-3.3.8c-1,.5-1.8,1.3-2.3,2.4-.5,1.1-.8,2.4-.8,4.1v13.3h-7.8Z"/>
    <path class="st1" d="M244.1,269.9c-2.1,0-3.9-.4-5.4-1.1-1.5-.7-2.7-1.7-3.5-2.9-.8-1.2-1.2-2.6-1.2-4.2s.4-3,1.2-4.2c.8-1.2,2-2.1,3.7-2.8,1.7-.7,3.9-1,6.6-1h7.2v4.5h-6.3c-1.8,0-3.1.3-3.8.9-.7.6-1,1.3-1,2.2s.4,1.8,1.2,2.4c.8.6,1.9.9,3.2.9s2.5-.3,3.5-.9c1-.6,1.8-1.5,2.2-2.7l1.2,3.6c-.6,1.7-1.6,3.1-3.1,4s-3.4,1.3-5.8,1.3ZM252.3,269.5v-5.2l-.5-1.2v-9.4c0-1.7-.5-3-1.5-3.9-1-.9-2.6-1.4-4.7-1.4s-2.8.2-4.2.7c-1.4.4-2.6,1.1-3.5,1.8l-2.8-5.4c1.5-1,3.2-1.8,5.3-2.4s4.2-.8,6.3-.8c4.1,0,7.3,1,9.5,2.9,2.3,1.9,3.4,5,3.4,9.1v15.3h-7.3Z"/>
    <path class="st1" d="M266.6,279.2v-36.6h7.4v13.5c-.1,0,.4,8,.4,8v15.2h-7.8ZM282.5,269.9c-2.3,0-4.2-.5-6-1.5-1.7-1-3-2.5-4-4.6-1-2.1-1.4-4.6-1.4-7.8s.5-5.8,1.3-7.8c.9-2,2.2-3.5,3.9-4.5s3.7-1.5,6.1-1.5,4.8.6,6.8,1.7c2,1.2,3.6,2.8,4.8,4.8,1.2,2.1,1.8,4.5,1.8,7.3s-.6,5.3-1.8,7.3c-1.2,2.1-2.8,3.7-4.8,4.8-2,1.1-4.3,1.7-6.8,1.7ZM281.2,263.5c1.3,0,2.5-.3,3.5-.9,1-.6,1.8-1.5,2.5-2.6.6-1.1.9-2.4.9-4s-.3-2.9-.9-4c-.6-1.1-1.4-2-2.5-2.6s-2.2-.9-3.5-.9-2.5.3-3.5.9c-1,.6-1.9,1.5-2.5,2.6s-.9,2.4-.9,4,.3,2.9.9,4,1.4,2,2.5,2.6c1,.6,2.2.9,3.5.9Z"/>
    <path class="st1" d="M314.5,269.9c-3.1,0-5.8-.6-8.1-1.8-2.3-1.2-4.1-2.8-5.4-4.9-1.3-2.1-1.9-4.5-1.9-7.1s.6-5.1,1.9-7.2c1.2-2.1,3-3.7,5.1-4.9,2.2-1.2,4.6-1.8,7.4-1.8s5,.6,7.1,1.7c2.1,1.1,3.8,2.7,5,4.8s1.9,4.6,1.9,7.5,0,.6,0,1c0,.4,0,.7-.1,1.1h-21.8v-4.5h17.8l-3,1.3c0-1.4-.3-2.6-.9-3.7s-1.3-1.8-2.3-2.4c-1-.6-2.2-.9-3.5-.9s-2.5.3-3.5.9c-1,.6-1.8,1.4-2.4,2.5-.6,1-.8,2.3-.8,3.7v1.2c0,1.5.3,2.8,1,3.9.7,1.1,1.6,2,2.8,2.6,1.2.6,2.6.9,4.2.9s2.7-.2,3.8-.7c1.1-.4,2.1-1.1,3-1.9l4.1,4.5c-1.2,1.4-2.8,2.5-4.6,3.2-1.9.8-4,1.1-6.5,1.1Z"/>
    <path class="st1" d="M335.6,269.9c-1.3,0-2.5-.5-3.4-1.4-1-.9-1.4-2.1-1.4-3.5s.5-2.6,1.4-3.5,2.1-1.3,3.4-1.3,2.5.4,3.5,1.3c.9.9,1.4,2,1.4,3.5s-.5,2.6-1.4,3.5c-.9.9-2.1,1.4-3.5,1.4Z"/>
    <path class="st1" d="M358.4,269.9c-2.9,0-5.5-.6-7.8-1.8-2.3-1.2-4-2.8-5.3-4.9-1.3-2.1-1.9-4.5-1.9-7.2s.6-5.1,1.9-7.2c1.3-2.1,3.1-3.7,5.3-4.9,2.3-1.2,4.9-1.8,7.8-1.8s5.3.6,7.4,1.8c2.1,1.2,3.7,2.9,4.7,5.1l-6.1,3.2c-.7-1.3-1.6-2.2-2.6-2.8-1-.6-2.2-.9-3.4-.9s-2.5.3-3.6.9c-1.1.6-1.9,1.5-2.5,2.6-.6,1.1-.9,2.4-.9,4s.3,2.9.9,4c.6,1.1,1.5,1.9,2.5,2.5,1.1.6,2.3.9,3.6.9s2.4-.3,3.4-.9c1.1-.6,1.9-1.5,2.6-2.8l6.1,3.3c-1,2.2-2.6,3.8-4.7,5-2.1,1.2-4.6,1.8-7.4,1.8Z"/>
    <path class="st1" d="M387.4,269.9c-2.9,0-5.4-.6-7.6-1.8-2.2-1.2-4-2.8-5.2-4.9-1.3-2.1-1.9-4.5-1.9-7.1s.6-5.1,1.9-7.2c1.3-2.1,3-3.7,5.2-4.9,2.2-1.2,4.8-1.8,7.6-1.8s5.4.6,7.6,1.8c2.2,1.2,4,2.8,5.2,4.9,1.3,2.1,1.9,4.5,1.9,7.2s-.6,5-1.9,7.1c-1.3,2.1-3,3.7-5.2,4.9-2.2,1.2-4.8,1.8-7.6,1.8ZM387.4,263.5c1.3,0,2.5-.3,3.5-.9,1-.6,1.8-1.5,2.4-2.6.6-1.1.9-2.4.9-4s-.3-2.9-.9-4c-.6-1.1-1.4-2-2.4-2.6-1-.6-2.2-.9-3.5-.9s-2.5.3-3.5.9c-1,.6-1.9,1.5-2.5,2.6-.6,1.1-.9,2.4-.9,4s.3,2.9.9,4c.6,1.1,1.4,2,2.5,2.6,1,.6,2.2.9,3.5.9Z"/>
    <path class="st1" d="M407.4,269.5v-26.9h7.5v7.4l-1.4-2.2c.9-1.8,2.3-3.2,4-4.2,1.7-.9,3.7-1.4,5.9-1.4s4.6.6,6.5,1.9c1.9,1.2,3.1,3.2,3.7,5.7l-2.8-.8c.9-2.1,2.3-3.8,4.3-5s4.3-1.8,6.8-1.8,4,.4,5.7,1.3c1.7.9,3,2.2,3.9,3.9s1.4,4,1.4,6.7v15.4h-7.8v-14.2c0-2.2-.5-3.8-1.3-4.8-.9-1-2.2-1.5-3.8-1.5s-2.1.3-3,.8c-.9.5-1.6,1.3-2.1,2.3s-.8,2.3-.8,3.9v13.5h-7.8v-14.2c0-2.2-.4-3.8-1.3-4.8-.9-1-2.1-1.5-3.8-1.5s-2.1.3-3,.8c-.9.5-1.6,1.3-2.1,2.3s-.8,2.3-.8,3.9v13.5h-7.8Z"/>
  </g>
</svg>