<?xml version="1.0" encoding="UTF-8"?>
<svg id="Layer_1" data-name="Layer 1" xmlns="http://www.w3.org/2000/svg" viewBox="0 0 512 512">
  <defs>
    <style>
      .cls-1 {
        fill: #e0922f;
      }

      .cls-1, .cls-2, .cls-3 {
        fill-rule: evenodd;
      }

      .cls-3 {
        fill: #cc2229;
      }
    </style>
  </defs>
  <path class="cls-2" d="M188.81,293.97c2.57.67,5.71,1.16,8.41,1.16s5.92-.48,8.6-1.24c8.02-2.25,14.76-8.72,17.6-16.86,1.37-3.77,2.35-8.02,2.35-12.04s-.98-8.3-2.26-11.93c-2.92-7.88-9.58-14.43-17.52-16.77-2.54-.67-5.92-1.15-8.62-1.15-2.91.03-5.8.45-8.6,1.24-7.92,2.25-14.66,8.95-17.58,16.91-1.28,3.63-2.18,8.02-2.18,12.18,0,3.94.9,8.5,2.24,12.58h-24.56c-5.46,0-9.88-4.78-9.88-10.41l-.08-51.18h-15.12v51.18c0,14.35,11.3,26.03,25.16,26.03h27.78v-9.96c3.52,4.84,8.71,8.78,14.27,10.27ZM183.98,271.49c-.14-1.77-.52-4.11-.52-6.02,0-2.08.3-4.78.6-6.61.19-1.63,1.01-3.55,1.61-4.95,1.94-4.64,6.66-7.57,11.63-7.57s9.72,2.93,11.73,7.57c.68,1.46,1.36,3.49,1.58,5.01.3,1.69.68,4.17.68,6.08s-.52,4.56-.76,6.42c-.14,1.63-.96,3.54-1.56,4.87-2.1,4.7-6.69,7.88-11.76,7.88s-9.61-3.18-11.54-7.79c-.6-1.4-1.56-3.31-1.69-4.86h0ZM280.18,281.82c-3.88,8.41-12.2,13.76-21.26,13.76-5.46,0-11.25-2.33-15.39-6.05v4.11h-14.03v-77.21h14.24v24.42c4.22-3.65,9.6-5.68,15.18-5.71,3.6,0,7.56.98,10.64,2.53,4.93,2.62,9.14,7.74,11.38,13.2,1.64,4.42,2.76,9.57,2.76,14.49,0,5.49-1.26,11.51-3.52,16.46h0ZM244.1,257.2c.27-1.29,1.17-2.7,1.86-3.85,2.24-3.63,6.14-6.02,10.34-6.02,2.4,0,5.02.79,6.88,2.17,2.92,2.31,5.27,6.19,5.71,10.1.22,1.6.44,3.94.44,5.71,0,1.6-.3,3.55-.44,5.09-.22,2.53-1.5,5.23-2.78,7.4-2.08,3.4-5.98,5.65-10.02,5.65-4.97,0-9.53-3.26-11.16-8.05-1.04-3.09-1.77-7.09-1.77-10.49,0-2.48.44-5.49.96-7.71h0ZM301.85,293.66h-14.44v-77.21h14.44v77.21h0ZM342.46,275.97c.22-2.31.57-5.32.57-7.71,0-1.24-.22-2.62-.22-3.77-1.23.68-2.97,1.46-4.45,1.77l-8.93,2.17c-1.5.31-3.08.98-4.5,1.6-1.55.7-3.22,1.86-4.18,3.18-.85.98-1.2,2.39-1.2,3.66,0,.56.14,1.24.3,1.72.9,2.22,2.84,4.33,5.08,5.09,1.53.48,3.12.74,4.72.76,3.6,0,7.21-1.38,10.04-3.63,1.42-1.15,2.62-3.01,2.76-4.84h0ZM356.46,285.76c0,2.87.66,5.63,1.86,7.88h-14c-.32-1.69-.59-3.39-.82-5.1-4.61,4.08-10.62,6.42-16.76,6.42-5.46,0-11.16-2.03-15.42-5.4-3.08-2.42-5.32-6.19-5.79-10.21,0-.36-.05-.98-.05-1.38,0-5.32,2.62-10.33,6.87-13.25,2.7-1.94,6.36-3.63,9.75-4.33,3.6-1.01,8.16-1.55,11.6-2,1.2-.25,3.22-.7,4.5-.79,2.48-.31,4.31-2.48,4.31-5.01,0-.79-.11-1.55-.41-2.25-.68-1.46-2.02-2.79-3.52-3.38-1.94-1.02-4.11-1.55-6.3-1.55-1.86,0-3.82.36-5.62,1.15-2.84,1.15-4.77,3.94-5.02,7.09h-12.5c.22-2.79,1.07-6.02,2.18-8.5,1-2.07,2.49-3.87,4.34-5.23,1.5-1.1,3.44-2.25,5.16-2.78,3.68-1.24,7.86-2,11.76-2,4.64,0,9.74.98,13.76,2.62,3.38,1.55,6.38,4.16,8.16,7.4,1.2,2.7,2.02,6.73,2.02,9.82l-.06,30.78h0ZM372.07,293.66l-16.71-56.75h14.22l10.12,36.07,9.03-36.07h13.05l10.31,36.47,9.06-36.47h14.38l-16.24,56.75h-13.26l-10.4-38.29-10.27,38.29h-13.32ZM463.33,247.04c2.78.93,4.88,3.63,5.1,6.64h12.96c-.08-6.33-3.68-12.35-9.14-15.05-8.08-3.85-15.67-4.25-24.13-1.69-8.54,2.62-12.72,7.94-12.72,16.35,0,4.19,1.86,8.44,4.86,11.14,3.38,3.01,8.46,4.56,12.74,5.4l11.51,2.31c4.67.84,7.42,5.91,3.39,9.71-3.82,3.55-9.44,3.23-13.95,1.46-3.52-1.38-6.06-4.95-6.36-8.86h-13.02c.13,3.46,1.04,7.09,2.76,9.96,1.94,3.23,5.16,6.33,8.54,7.88,8.33,3.69,15.96,3.91,24.48,1.52,8.24-2.39,13.13-8.72,13.13-17.28,0-6.16-2.4-11.26-7.64-14.18-2.92-1.53-6.06-2.6-9.3-3.18l-14.13-2.62c-4.12-.62-5.79-4.87-2.87-7.88,3.91-3.54,9.09-2.95,13.79-1.63Z"/>
  <path class="cls-3" d="M65.95,216.45H28.5v38.61c0,21.27,17.36,38.63,38.61,38.63h38.6l.06-37.54-25.01.03c-8.13-.03-14.8-6.64-14.8-14.8v-24.93Z"/>
  <path class="cls-1" d="M79.63,216.45h-11.37v24.96c0,6.87,5.63,12.44,12.49,12.46h24.96v-11.4l-15.81.03c-5.66-.03-10.27-4.61-10.27-10.24v-15.82h0ZM92.12,216.45h-10.19v15.84c0,4.36,3.57,7.88,7.94,7.91h15.84v-10.07h-7.48c-3.32,0-6.02-2.73-6.08-6.11l-.03-7.57h0ZM105.71,216.45h-11.25l.03,7.57c.03,2.11,1.69,3.8,3.71,3.8h7.51v-11.37h0Z"/>
</svg>