<svg id="Layer_1" data-name="Layer 1" xmlns="http://www.w3.org/2000/svg" viewBox="0 0 512 512"><defs><style>.cls-1{fill:#010101;}</style></defs><title>lucasfilm-vector-logo_logoshape</title><path class="cls-1" d="M86.54,301.37l-.16-.12.19-2.44.55.49a22.75,22.75,0,0,0,7.54,4.18,21.62,21.62,0,0,0,6.36,1,23.07,23.07,0,0,0,11.71-3.4c6.85-4,9.78-11.3,11-16.76a44.78,44.78,0,0,0,1.1-11.05h0l-.11-76h0c0-.13.21-3.39,2.27-5a12.14,12.14,0,0,1,3.76-2v-2.45H113v2.45a12.3,12.3,0,0,1,3.87,2c1.78,1.4,2.18,4,2.26,4.81v0h0c.07,24.38.17,79.51.15,81.84,0,4.73-1.35,8.57-3.94,11.4a12.45,12.45,0,0,1-9.36,4.38h-.08a13.79,13.79,0,0,1-8.74-3.79c-2.67-2.49-3.54-7.69-3.55-8.92l-.28-84.91v0a9.43,9.43,0,0,1,1.47-4.23,7.19,7.19,0,0,1,4.49-2.61v-2.5h-25v2.36a7.23,7.23,0,0,1,6,7.54h0v.26l0,85.21H78.54v-85.2c0-.89-.18-3.07-1.39-4.25A6.22,6.22,0,0,0,73.84,192a1.55,1.55,0,0,1-1.38-1.57v-3.08A1.54,1.54,0,0,1,74,185.75H99.66a1.55,1.55,0,0,1,1.52,1.58v3.23a1.54,1.54,0,0,1-1.38,1.57A5.47,5.47,0,0,0,96.3,194a7.22,7.22,0,0,0-1.07,3.13L95.49,282c0,1.31.93,5.58,2.94,7.46a12,12,0,0,0,7.48,3.29H106a10.55,10.55,0,0,0,8-3.76c2.21-2.42,3.4-5.91,3.43-10.07,0-2.28-.08-57.32-.17-81.76h0a5.38,5.38,0,0,0-1.5-3.34,10.53,10.53,0,0,0-3.49-1.71,1.59,1.59,0,0,1-1.14-1.53v-3.12a1.57,1.57,0,0,1,1.52-1.58h18.55a1.56,1.56,0,0,1,1.51,1.58v3.12a1.58,1.58,0,0,1-1.13,1.53,10.6,10.6,0,0,0-3.39,1.71c-1.2.94-1.48,3-1.52,3.47v1.8c.06,28.27.14,75.71.14,76a46.09,46.09,0,0,1-1.13,9.69c-1.9,8.37-6.05,14.59-12,18A25,25,0,0,1,101,306.42a22.75,22.75,0,0,1-6.9-1.07,23.63,23.63,0,0,1-7.53-4m-1.06-14.46-3.24,38.81a1.56,1.56,0,0,1-1.52,1.44l-47.42.13c-.4,0-1.51,0-1.51-1.57v-3.84a1.54,1.54,0,0,1,1.36-1.56,5.6,5.6,0,0,0,3.64-2.6,9.2,9.2,0,0,0,.77-3.85l-.23-116.66a6.06,6.06,0,0,0-1.3-3.28,6,6,0,0,0-3.19-1.79l-.4-.12a1.52,1.52,0,0,1-1.09-1.5v-.66c0-.92,0-2.45,0-2.45a1.57,1.57,0,0,1,.44-1.11,1.54,1.54,0,0,1,1.08-.46H59.79a1.55,1.55,0,0,1,1.52,1.57v3.2a1.54,1.54,0,0,1-1.26,1.55,7.21,7.21,0,0,0-3.15,1.47,6,6,0,0,0-1.62,3.06c0,.14,0,40,0,73.86v46.69h8.47a10,10,0,0,0,6-2.6,9.61,9.61,0,0,0,2.89-3.75l.06-.16a16.48,16.48,0,0,0,1-3.18c.17-.85,2.72-20.79,2.75-21a1.55,1.55,0,0,1,1.5-1.38h6a1.49,1.49,0,0,1,1.12.51,1.58,1.58,0,0,1,.39,1.2m14.91,22.15a25.1,25.1,0,0,0,8.41-1.42c7.86-2.76,13.55-7.66,16.88-14.51a37.27,37.27,0,0,0,3.43-15c.4-10.65.41-79.75.41-80.77a3.84,3.84,0,0,1,.48-1.53c.79-.9,4.37-2.4,4.37-2.4a1.89,1.89,0,0,0,1.12-1.85v-7a1.82,1.82,0,0,0-.45-1.26,1.61,1.61,0,0,0-1.17-.52H109.93a1.6,1.6,0,0,0-1.16.52,1.82,1.82,0,0,0-.45,1.26v8.16a1.7,1.7,0,0,0,1.21,1.63h.06c3.53.55,4.37,2.08,4.61,3.51,0,0,1.26,79.91,0,84.66h0a10.76,10.76,0,0,1-2.46,4.71,7.61,7.61,0,0,1-5.8,2.42,7.13,7.13,0,0,1-5.17-2.24c-1.66-1.75-2.46-4.35-2.41-7.71h0c0-.63,0-14.85,0-79v-3.49c0-.81,0-1.08.47-1.4a13.83,13.83,0,0,1,4.27-1.47h0a1.7,1.7,0,0,0,1.21-1.63v-8.16a1.92,1.92,0,0,0-.44-1.26,1.63,1.63,0,0,0-1.18-.52H71.62a1.59,1.59,0,0,0-1.16.52,1.81,1.81,0,0,0-.43,1.26v8.16a1.69,1.69,0,0,0,1.2,1.63h0a13.84,13.84,0,0,1,4.26,1.47c.43.32.45.6.48,1.4v85s-2,.06-2,1.47c-1.14,6.37-1.61,11.51-2,15.65-.55,5.78-.89,9.6-2.64,11.83s-4.72,3-10.8,3V196.6a1.37,1.37,0,0,1,.35-.8c.59-.55,2.72-.9,3.86-1.09l.08,0A1.68,1.68,0,0,0,64.17,193v-8.42a1.8,1.8,0,0,0-1.75-1.83H30.11a1.67,1.67,0,0,0-1.17.52,1.87,1.87,0,0,0-.44,1.26v8.17a1.7,1.7,0,0,0,1.21,1.63h0A14.12,14.12,0,0,1,34,195.82c.47.35.47,1.53.47,1.53,0,.43,0,117.13,0,118.2,0,1.31-1.83,1.77-1.95,1.81l-2.11.35A1.66,1.66,0,0,0,29,319.33h0v9.23a1.68,1.68,0,0,0,.36,1.22,1.37,1.37,0,0,0,1,.34H83.25a1.63,1.63,0,0,0,1.62-1.55l2-23.69a20.72,20.72,0,0,0,5.64,2.9,25.16,25.16,0,0,0,7.9,1.26"/><path class="cls-1" d="M480.25,326.84a1.49,1.49,0,0,1-1.06.46H452a1.55,1.55,0,0,1-1.52-1.58v-3.63a1.59,1.59,0,0,1,1.3-1.58,6.49,6.49,0,0,0,2.12-.73,4.11,4.11,0,0,0,1.74-1.86,11.43,11.43,0,0,0,.68-4c0-.06.06-84.24.06-92.39l-2.39,0c-1,5.08-14.13,70.64-14.26,71.31-.29,1.49-.67,2.86-1.53,2.86s-1.27-1.72-1.45-2.75c-.07-.34-13.52-65.15-14.79-71.39h-2.23l-.06,70.56a8.53,8.53,0,0,0,.36,2.11,8.7,8.7,0,0,0,1.17,2.2,7.37,7.37,0,0,0,1.63,1.39,17.86,17.86,0,0,0,1.83,1,1.54,1.54,0,0,1,.94,1.45v3.65a1.58,1.58,0,0,1-.7,1.33,1.47,1.47,0,0,1-.82.25,1.53,1.53,0,0,1-.63-.15l-9.91-4.8-8.13-3.76a1.61,1.61,0,0,1-.91-1.45V291.2a1.57,1.57,0,0,1,1.23-1.56h0a12.83,12.83,0,0,0,2-.58,5.46,5.46,0,0,0,1.55-1,4.88,4.88,0,0,0,1.05-1.6,4.14,4.14,0,0,0,.22-1.39v-5.12c0-72.22-.05-82,0-82a6.41,6.41,0,0,0-.16-1.58,5.72,5.72,0,0,0-1-1.95,6.47,6.47,0,0,0-1.82-1.37,8.32,8.32,0,0,0-1.83-.61,1.56,1.56,0,0,1-1.26-1.53l-.05-3.47a1.65,1.65,0,0,1,.43-1.14,1.51,1.51,0,0,1,1.09-.47h20.91a1.55,1.55,0,0,1,1.5,1.26c9.69,48,10.86,53.81,11,54.41.53,0,1.36,0,1.91,0,.88-4.45,10.77-54.15,10.83-54.47a1.54,1.54,0,0,1,1.49-1.27H479a1.56,1.56,0,0,1,1.52,1.59v3.45a1.56,1.56,0,0,1-1.2,1.54,13.2,13.2,0,0,0-1.93.67,6,6,0,0,0-1.64,1.13,5.25,5.25,0,0,0-1.09,1.69,6.71,6.71,0,0,0-.34,1.72c0,1.7.06,117.19.06,118.09a5.06,5.06,0,0,0,.39,1.68,7.49,7.49,0,0,0,1.28,1.76,5.12,5.12,0,0,0,1.65.95,7.52,7.52,0,0,0,1.62.38,1.56,1.56,0,0,1,1.35,1.56l0,3.77a1.66,1.66,0,0,1-.44,1.12m-71.6-42.08a2.08,2.08,0,0,1-.71,1.46,2.43,2.43,0,0,1-1.43.54c-.31,0-.67-.18-.33-1.79s2.34-12.24,2.34-12.24c.06-.52.45-1.26.54-.06s-.37,11.59-.41,12.09M401.24,295c-.12,0-13.9-5.52-20.39-7.81-6-2.11-14.54-4.81-16.18-5.34h0a1.56,1.56,0,0,1-1.09-1.52V276.6A1.55,1.55,0,0,1,365,275l0,0a7.07,7.07,0,0,0,1.81-.36,3.42,3.42,0,0,0,1.37-.81,3.68,3.68,0,0,0,.76-1.37,12.36,12.36,0,0,0,.32-2.09h0V198.23a9.6,9.6,0,0,0-.32-2.24,5.65,5.65,0,0,0-1-1.82,11.08,11.08,0,0,0-3.66-1.95,1.62,1.62,0,0,1-1-1.55l-.07-3.35a1.55,1.55,0,0,1,1.51-1.53H390a1.55,1.55,0,0,1,1.52,1.59v3.3a1.56,1.56,0,0,1-1,1.49c-3.36,1.05-4.13,2.66-4.39,3.2a5.16,5.16,0,0,0-.45,1.65c0,11.65,0,42.12,0,60.33v21.34a14.75,14.75,0,0,0,5.55,1.25,6.11,6.11,0,0,0,2.34-.37l.07,0c2.8-1.09,4.14-4.81,4.31-5.27s4.44-16.4,4.49-16.56h0v0a1.54,1.54,0,0,1,1.43-1l3.6,0a1.41,1.41,0,0,1,1.14.56,1.61,1.61,0,0,1,.34,1.28l-5.71,35.18a1.58,1.58,0,0,1-2,1.22m-43.14-15.7a1.47,1.47,0,0,1-.93.33,9.48,9.48,0,0,1-1.17-.25c-2.18-.56-23.89-5.71-24.11-5.77a1.56,1.56,0,0,1-1.2-1.53v-3.52A1.58,1.58,0,0,1,332,267a5.57,5.57,0,0,0,1.79-.58,6.6,6.6,0,0,0,1.7-1.58,6.71,6.71,0,0,0,.73-1.82,9.66,9.66,0,0,0,.22-1.83v-4.4c0-16-.07-58.33-.07-59.59h0a7,7,0,0,0-.35-1.7,6.31,6.31,0,0,0-.87-1.47l0,0a6.9,6.9,0,0,0-1.09-1l-1.22-.75a1.78,1.78,0,0,1-.85-1.42v-3.35a1.55,1.55,0,0,1,1.51-1.59l22-.07a1.53,1.53,0,0,1,1.08.47,1.62,1.62,0,0,1,.44,1.12v3.58a1.76,1.76,0,0,1-.85,1.4l-1,.61a9.05,9.05,0,0,0-1.46,1.42,4.92,4.92,0,0,0-.61,1.33,15,15,0,0,0-.39,2.13c0,1.57,0,68.28,0,68.28a13.39,13.39,0,0,0,.31,2.09c.57,2.57,4.52,4.44,4.54,4.44a1.58,1.58,0,0,1,1.11,1.52l0,3.85a1.59,1.59,0,0,1-.59,1.24M327.66,207a1.58,1.58,0,0,1-1.52,1.6h-6.05a1.57,1.57,0,0,1-1.53-1.6l0-5.09a8,8,0,0,0-.52-2.16,7.39,7.39,0,0,0-1.62-2.23,7,7,0,0,0-2.15-1.32,10.13,10.13,0,0,0-2.6-.49h-7.6c0,3.07,0,23.17,0,26.43h6a4.6,4.6,0,0,0,1.32-.34,5.11,5.11,0,0,0,1.31-1.06,8.1,8.1,0,0,0,1.1-1.79,6.86,6.86,0,0,0,.42-1.52,1.56,1.56,0,0,1,1.51-1.37h5.11a1.55,1.55,0,0,1,1.52,1.57v18.42a1.57,1.57,0,0,1-1.52,1.59h-5a1.54,1.54,0,0,1-1.49-1.27h0v0a12.27,12.27,0,0,0-.55-1.82c-.31-.78-2.07-3.21-3.91-3.21h-5.81c0,4.45.09,26.77.09,26.77a5.46,5.46,0,0,0,.35,1.65,6.16,6.16,0,0,0,1.1,1.7,8.21,8.21,0,0,0,1.94,1.26,5.68,5.68,0,0,0,1.33.41,1.56,1.56,0,0,1,1.32,1.56v3.4a1.58,1.58,0,0,1-.5,1.18,1.41,1.41,0,0,1-1,.41h-.16l-3.38-.39c-5.79-.66-6.83-.78-8.39-.89-3.55-.23-9.78-.85-12.27-1.09h-.14a1.55,1.55,0,0,1-1.36-1.58v-3.59a1.59,1.59,0,0,1,1.28-1.58,6.48,6.48,0,0,0,1.76-.59,5.87,5.87,0,0,0,1.67-1.35,5.79,5.79,0,0,0,.85-1.72,9.31,9.31,0,0,0,.27-1.85c0-.89-.13-57.47-.13-57.47a7.67,7.67,0,0,0-.35-1.94,4.56,4.56,0,0,0-1-1.52,6.46,6.46,0,0,0-1.67-1.22,7.88,7.88,0,0,0-1.7-.56,1.56,1.56,0,0,1-1.24-1.55v-3.4a1.58,1.58,0,0,1,.44-1.12,1.49,1.49,0,0,1,1.08-.47h41.77a1.57,1.57,0,0,1,1.52,1.59V207Zm-49.51,2.42a1.55,1.55,0,0,1-1.52,1.58h-5.58a1.56,1.56,0,0,1-1.5-1.58v-4.07a15.47,15.47,0,0,0-.56-4.55,12.84,12.84,0,0,0-1.52-2.79,8.49,8.49,0,0,0-6.36-3.35,6.83,6.83,0,0,0-4.47,1.83,6.41,6.41,0,0,0-1.42,1.88,6.51,6.51,0,0,0-.55,2.36v9.56a8.42,8.42,0,0,0,.38,2.14,10.36,10.36,0,0,0,1.15,2.05,17.66,17.66,0,0,0,3,2.45l2.76,1.78,8.9,5.77a21.84,21.84,0,0,1,3,2.6,15.29,15.29,0,0,1,2.42,3.47,18.16,18.16,0,0,1,1.49,4.09,20.25,20.25,0,0,1,.42,3.8v14h0a16.36,16.36,0,0,1-3.35,8.62,18.05,18.05,0,0,1-5.75,4.67,17.17,17.17,0,0,1-7.85,1.58,23.09,23.09,0,0,1-8.3-1.46,39.59,39.59,0,0,1-5.05-2.73c0,1.08.05,2.53.05,2.55a1.7,1.7,0,0,1-.43,1.12,1.56,1.56,0,0,1-1.08.47H241a1.53,1.53,0,0,1-1.08-.47,1.6,1.6,0,0,1-.44-1.13V240.13a1.54,1.54,0,0,1,1.52-1.57h5.28a1.54,1.54,0,0,1,1.5,1.56l.06,9.27a9.71,9.71,0,0,0,.4,2.37,7.41,7.41,0,0,0,4.72,5,5.47,5.47,0,0,0,1.9.28,12,12,0,0,0,3.52-.57,8,8,0,0,0,2.73-2.26,4.91,4.91,0,0,0,.92-1.82,15.62,15.62,0,0,0,.44-3.7v-7.44a12.23,12.23,0,0,0-.33-2.49,5.21,5.21,0,0,0-.7-1.42l-.07-.09a5.5,5.5,0,0,0-1.08-1.16,24.36,24.36,0,0,0-2.06-1.51c-.5-.32-11.84-7.82-11.89-7.86a17.2,17.2,0,0,1-2.28-2,14.84,14.84,0,0,1-4.1-7.51,20.52,20.52,0,0,1-.42-3.89V196.84h0a13.18,13.18,0,0,1,3.75-8A15.8,15.8,0,0,1,248,185.5a20.16,20.16,0,0,1,6.88-1.41,22.08,22.08,0,0,1,5.16.6,21,21,0,0,1,5.2,1.9,30.78,30.78,0,0,1,4.06,2.65v-1.86a1.55,1.55,0,0,1,1.52-1.59h5.77a1.55,1.55,0,0,1,1.52,1.59v22.05Zm-42,56.9a1.56,1.56,0,0,1-1.36,1.56l-21.31,2.38a1.43,1.43,0,0,1-1-.41,1.55,1.55,0,0,1-.51-1.16v-3.25A1.56,1.56,0,0,1,213,264a6.13,6.13,0,0,0,1.38-.76,5.34,5.34,0,0,0,1.14-1.29,4.44,4.44,0,0,0,.39-1.44c0-.15,0-.29,0-.43,0-.66-.23-2.19-.23-2.19l-.24-1.43-.76-4.5c-.54-3.22-1.12-6.74-1.37-8.2H199.64l-.89,5.89-.1.71c-.82,5.34-1.92,12.67-1.93,12.76a2.46,2.46,0,0,0,.6,2.14,3.74,3.74,0,0,0,1.35.76,7.52,7.52,0,0,0,1.37.14,1.48,1.48,0,0,1,1.05.44,1.63,1.63,0,0,1,.46,1.15V271a1.57,1.57,0,0,1-1.21,1.54l-15.16,3.14a1,1,0,0,1-.29,0,1.47,1.47,0,0,1-1-.37,1.56,1.56,0,0,1-.55-1.22v-2.9A1.6,1.6,0,0,1,184,270a14.43,14.43,0,0,0,1.65-1.66,12.66,12.66,0,0,0,1.35-2.13,21.57,21.57,0,0,0,1-4c.52-3.51,9.34-63.28,9.35-63.34a8.28,8.28,0,0,0,.07-2.31,6.06,6.06,0,0,0-.79-2.22,4.43,4.43,0,0,0-1.38-1.34,7.36,7.36,0,0,0-2.08-.76,1.58,1.58,0,0,1-1.24-1.57l0-3.29a1.56,1.56,0,0,1,1.5-1.57h33.93a1.57,1.57,0,0,1,1.52,1.58v3.46a1.6,1.6,0,0,1-.49,1.15,1.44,1.44,0,0,1-1,.43,10.46,10.46,0,0,0-1.86.16,5,5,0,0,0-1.81.94,4,4,0,0,0-1.06,1.25,4.19,4.19,0,0,0-.39,1.88s9.22,59.68,9.29,60.15a0,0,0,0,1,0,0,9.28,9.28,0,0,0,.49,1.55,5.32,5.32,0,0,0,.82,1.2,4.14,4.14,0,0,0,1.19.9l1.05.44a1.75,1.75,0,0,1,1,1.5v4ZM179.4,269.4a20.66,20.66,0,0,1-5,7.85,24.37,24.37,0,0,1-8.69,5.63A22.48,22.48,0,0,1,158.4,284h-1.34a25.57,25.57,0,0,1-5.1-.5c-3.29-.66-6.57-2-8.15-3.42a17.63,17.63,0,0,1-4.66-6.18,20.57,20.57,0,0,1-1.24-7V199.46h0a15,15,0,0,1,1.62-5.77,18.37,18.37,0,0,1,7.75-7.23,22.84,22.84,0,0,1,9.37-2.25,13.13,13.13,0,0,1,1.54.08,31.24,31.24,0,0,1,8.27,2.1,36.28,36.28,0,0,1,3.67,1.78v-.71a1.57,1.57,0,0,1,1.53-1.6h7.08a1.56,1.56,0,0,1,1.51,1.59v27.32a1.6,1.6,0,0,1-.44,1.12,1.49,1.49,0,0,1-1.07.46h-6.84a1.54,1.54,0,0,1-1.51-1.57V204.68c0-.26-.35-6.45-4.16-9.38a7.09,7.09,0,0,0-4.34-1.53,8.1,8.1,0,0,0-4.88,1.74,8.87,8.87,0,0,0-2.83,7l0,62a9.6,9.6,0,0,0,.58,2.61,10.24,10.24,0,0,0,2,3.07,7.91,7.91,0,0,0,2.65,1.73,7.1,7.1,0,0,0,2.2.34,12.43,12.43,0,0,0,3.72-.67,9.58,9.58,0,0,0,3.12-2.26,8.62,8.62,0,0,0,1.65-3.14,14.05,14.05,0,0,0,.47-3.46l0-19.89a1.69,1.69,0,0,1,.44-1.14,1.56,1.56,0,0,1,1.07-.46h6.9a1.56,1.56,0,0,1,1.52,1.59V262.2a22.77,22.77,0,0,1-1,7.2m304,49.9a1.66,1.66,0,0,0-1.45-1.68l-2.41-.3s-2.41-.23-2.41-1.9l-.05-118.07c0-1.42.06-1.76,5-3h0a1.68,1.68,0,0,0,1.2-1.64v-8.15a1.82,1.82,0,0,0-.44-1.27,1.58,1.58,0,0,0-1.15-.5h-30.4a1.65,1.65,0,0,0-1.6,1.37l-9.44,47.36c-2.47-12.19-9.48-47-9.56-47.36a1.66,1.66,0,0,0-1.6-1.37H403.27a1.58,1.58,0,0,0-1.16.51,1.82,1.82,0,0,0-.43,1.27v8.15a1.68,1.68,0,0,0,1.2,1.64h0a14,14,0,0,1,4.26,1.48c.43.31.45.58.47,1.4v.12c0,.9,0,50.63,0,56.28h-5.91a1.66,1.66,0,0,0-1.58,1.23c-.06.19-5.07,18.57-5.23,19.14a4.77,4.77,0,0,1-2.26,2.77h-.05a3.07,3.07,0,0,1-1.22.2,7.71,7.71,0,0,1-2.92-.66c0-5.73,0-77.77,0-79a1.62,1.62,0,0,0,0-.22c0-.78.05-1,.45-1.33a14.07,14.07,0,0,1,4.18-1.45h0a1.68,1.68,0,0,0,1.21-1.64v-8.15a1.91,1.91,0,0,0-.44-1.27,1.61,1.61,0,0,0-1.17-.5H362.52a1.58,1.58,0,0,0-1.16.51,1.78,1.78,0,0,0-.44,1.27v8.25a1.72,1.72,0,0,0,1.2,1.65h0c3.4.66,4.1,2.06,4.13,2.88v72.88a1.87,1.87,0,0,1-1.61,1.73l-2.55.2a1.66,1.66,0,0,0-.58.15s.1-1.6-1.19-1.94c0,0-4.94-.65-4.77-4.24V197.35c.05-1.24.55-1.66,2.17-2.57.12-.07,1.77-.85,1.77-2.08v-8.15a1.92,1.92,0,0,0-.45-1.27,1.63,1.63,0,0,0-1.17-.5H331.14a1.62,1.62,0,0,0-1.13.47,1.61,1.61,0,0,0-1.13-.47H281.61a1.68,1.68,0,0,0-1.14.46,1.58,1.58,0,0,0-1.11-.47H268.07a1.61,1.61,0,0,0-1.53,1.23,53.51,53.51,0,0,0-5.86-2.13,32.1,32.1,0,0,0-5.66-.67h-.1a23.1,23.1,0,0,0-7.94,1.63,18.55,18.55,0,0,0-5.54,3.82,16.16,16.16,0,0,0-4.72,10.06V213.4a23.53,23.53,0,0,0,.48,4.53,17.94,17.94,0,0,0,4.91,9,23.89,23.89,0,0,0,2.65,2.31l.1.06,0,0h0l11.81,7.81,1.82,1.31.54.57,0,0c.24.38.3.52.32.54a8.42,8.42,0,0,1,.22,1.76c0,.11,0,4.87,0,7.36h0a6.11,6.11,0,0,1-1.51,4,4.28,4.28,0,0,1-3.27,1.36,4,4,0,0,1-2.89-1.25,5.7,5.7,0,0,1-1.3-4.14h0c0-1.09,0-11.35,0-11.46a1.67,1.67,0,0,0-1.64-1.7H238.34a1.68,1.68,0,0,0-1.64,1.71l0,21.15a2.92,2.92,0,0,1-2.33-2.37c-.52-3.3-9-57.19-9.11-58.19a2.42,2.42,0,0,1,.28-1.94,1.87,1.87,0,0,1,1.44-.57h3.15a1.66,1.66,0,0,0,1.12-.46,1.79,1.79,0,0,0,.52-1.25l0-9.17a1.67,1.67,0,0,0-1.64-1.7H190.66a1.61,1.61,0,0,0-1.17.5,1.91,1.91,0,0,0-.44,1.27v8.15a1.68,1.68,0,0,0,1.2,1.63s3.49.31,4.12,1.42a2.46,2.46,0,0,1,.34,1.52l-9.59,64.41a24.24,24.24,0,0,1-.72,3.14,5,5,0,0,1-1.47,2.06c.3-2.21.35-4.57.36-4.68V239.94a1.67,1.67,0,0,0-1.64-1.7h-12.4a1.65,1.65,0,0,0-1.16.49,1.77,1.77,0,0,0-.48,1.23v22.89a7.21,7.21,0,0,1-1.79,4.79,5.09,5.09,0,0,1-3.87,1.6,4.75,4.75,0,0,1-3.42-1.48,6.68,6.68,0,0,1-1.53-4.89h0c0-1,0-62.14,0-62.14a5.07,5.07,0,0,1,.6-2,3.63,3.63,0,0,1,3.47-1.92c5,0,6.22,3.57,6.42,9v11.86a1.67,1.67,0,0,0,1.63,1.71h12.33a1.69,1.69,0,0,0,1.17-.5,1.72,1.72,0,0,0,.48-1.22V184.48a1.73,1.73,0,0,0-1.7-1.71H168.93a1.76,1.76,0,0,0-1.42.84h0a33.69,33.69,0,0,0-9.05-2.31,17.34,17.34,0,0,0-1.77-.09,25.71,25.71,0,0,0-10.55,2.5s-6,3.06-9.14,8.57a13.65,13.65,0,0,0-1.58,7.21V267c0,5.68,1.87,10.55,5.34,14.05,3.81,3.86,9.56,5.92,16.6,5.92h.78a25.66,25.66,0,0,0,15.15-4.79,25.37,25.37,0,0,0,7.21-8.19v3.64a2.2,2.2,0,0,0,2.14,2c.07,0,20.88-4.57,20.88-4.57a1.63,1.63,0,0,0,.91-1.51v-8.87a1.67,1.67,0,0,0-.49-1.22,1.56,1.56,0,0,0-1.13-.49s-3.06.08-3.17.07c.24-1.63,2.46-16.4,2.46-16.4h8.82c.42,2.53,2,11.67,2,12.18,0,0,.24,2.12-1.49,2.44-1.07.18-2.47.78-2.37,2.06l0,2.05v6.76a1.81,1.81,0,0,0,.54,1.26,1.62,1.62,0,0,0,1.09.44h.07c7.49-1.23,26.42-3.35,26.42-3.35a1.17,1.17,0,0,0,.61-.26,1.51,1.51,0,0,0,.71.26s8.11-.43,11.52-.58c0,0,.83-.13.84-1.4v-.34c.4.2.74.36,1,.48a22.14,22.14,0,0,0,3.7,1.09,28.7,28.7,0,0,0,5.64.57,22.22,22.22,0,0,0,5.82-.67,18.81,18.81,0,0,0,3.21-1.2,20.54,20.54,0,0,0,6.73-5.39,18.79,18.79,0,0,0,4-10.42c0-.31,0-14.22,0-14.22a23.61,23.61,0,0,0-.49-4.43,21.46,21.46,0,0,0-1.75-4.87,18.78,18.78,0,0,0-2.91-4.16,31.63,31.63,0,0,0-3.58-3.07l-11.64-7.54c-2.82-1.78-3.19-3-3.18-4.15v-9a3.43,3.43,0,0,1,3.54-3.42c4.44,0,5.47,3.2,5.61,8,0,.52,0,6.28,0,6.51A1.67,1.67,0,0,0,268.3,214h11.08a1.68,1.68,0,0,0,1.65-1.7l0-18c.07,0,3.55.67,4.46,1.55.37.35.44.56.47,1.39l.11,57.72c-.31,2.76-4.16,3.07-4.16,3.07a1.69,1.69,0,0,0-1.37,1.68v8.62A1.7,1.7,0,0,0,282,270l1.73.2.48,0c9.18.52,18.08,1.42,27.4,2.74a1.37,1.37,0,0,0,1-.43,1.84,1.84,0,0,0,.54-1.28v-9a1.68,1.68,0,0,0-1.39-1.7s-4.52-.59-4.66-2.56c0-.66-.06-23.64-.06-23.64H310c1.43-.06,1.84,3.48,2.14,5a1.64,1.64,0,0,0,1.59,1.37h10a1.69,1.69,0,0,0,1.65-1.71V214.79a1.69,1.69,0,0,0-1.65-1.7H313.44a1.67,1.67,0,0,0-1.63,1.46l-.34,2.44s-.35,2-1.52,2.17h-3c0-5.73,0-17.78,0-20.43h4.72a6.29,6.29,0,0,1,1.7.32,4.22,4.22,0,0,1,1.18.74,4.87,4.87,0,0,1,.87,1.19,3.62,3.62,0,0,1,.26,1.07v7.83a1.68,1.68,0,0,0,1.64,1.71h11.55a1.68,1.68,0,0,0,1.65-1.71V194.27c.06,0,2.91.81,3,2.46v.09c0,.7.06,64.27.06,64.32s0,2.53-1.92,2.85l-2.38.33a1.72,1.72,0,0,0-1.42,1.68l0,8.33a1.73,1.73,0,0,0,.74,1.42l31.83,7.55a.65.65,0,0,0,.36-.1,1,1,0,0,0,.36.31l.08,0c2,.56,3.75,1.08,5.45,1.6A343.92,343.92,0,0,1,426.54,310s.39.21,1.08-.21a1.65,1.65,0,0,0,.75-1.44l0-10a1.72,1.72,0,0,0-1-1.59s-4.93-1.54-4.93-4.73,0-35.41.06-53.29c3.55,17.07,12.21,58.43,12.31,58.89a4,4,0,0,0,.59,1.49,1.75,1.75,0,0,0,1.34.48h3a2.11,2.11,0,0,0,1.1-.54,3.9,3.9,0,0,0,.71-1.35s8.43-42,11.89-59.13c0,21.57-.06,74.53-.06,75.35a13.17,13.17,0,0,1-.3,2.43c-.25.78-1.56,1.15-1.8,1.2l-2.33.36a1.69,1.69,0,0,0-1.4,1.68v9a1.69,1.69,0,0,0,1.64,1.72h32.7a1.68,1.68,0,0,0,1.17-.51,1.85,1.85,0,0,0,.47-1.21l-.07-9.19"/><path class="cls-1" d="M209.72,296.66a15.94,15.94,0,0,0-12.51,6.14l-25.4.11a1.58,1.58,0,0,1-1.43-1.52,1.5,1.5,0,0,1,1.53-1.52,1.81,1.81,0,0,1,1.24.83,1.62,1.62,0,0,0,1.31.67,1.51,1.51,0,0,0,1-.37,2.09,2.09,0,0,0,.13-2.6,4.44,4.44,0,0,0-3.8-1.87h-.06a4.59,4.59,0,0,0-3.18,1.46,4.66,4.66,0,0,0-1.32,3.38,4.82,4.82,0,0,0,4.53,4.92h.08l27.41-.1h.13l.06-.1a12.48,12.48,0,0,1,10.26-5.56c6.94,0,12.6,5.93,12.6,13.19s-5.66,13.2-12.6,13.2a12.43,12.43,0,0,1-10.44-5.83l-.07-.12h-.13l-86.86-.1c-1.86.07-4.09,2.25-4,4.85a4.7,4.7,0,0,0,4.72,4.88h0a5.14,5.14,0,0,0,3.32-1.5c.87-1,1-2.05.32-2.8h0a1.33,1.33,0,0,0-.94-.36,2.52,2.52,0,0,0-1.64.74,1.63,1.63,0,0,1-1.06.58,1.55,1.55,0,0,1-1.47-1.52,1.46,1.46,0,0,1,1.38-1.46l84.18.07a15.92,15.92,0,0,0,12.74,6.46c9,0,16.3-7.67,16.3-17.08s-7.31-17.06-16.3-17.06"/><path class="cls-1" d="M417.06,320.87l-86.87.1h-.14l-.07.11a12.44,12.44,0,0,1-10.44,5.84c-7,0-12.59-5.92-12.59-13.2s5.64-13.18,12.59-13.18a12.44,12.44,0,0,1,10.25,5.55l.08.11H330l29,.09H359a5,5,0,0,0,3.22-8.31,4.65,4.65,0,0,0-3.19-1.46H359a4.4,4.4,0,0,0-3.79,1.87,2.13,2.13,0,0,0,.12,2.63,1.68,1.68,0,0,0,1,.34,1.61,1.61,0,0,0,1.31-.65,1.88,1.88,0,0,1,1.26-.85,1.49,1.49,0,0,1,1.51,1.53,1.55,1.55,0,0,1-1.43,1.52l-26.91-.11a16,16,0,0,0-12.53-6.15c-9,0-16.3,7.67-16.3,17.07s7.32,17.07,16.3,17.07a15.93,15.93,0,0,0,12.75-6.46l84.08-.07h.1a1.48,1.48,0,0,1,1.37,1.47,1.54,1.54,0,0,1-1.47,1.52,1.57,1.57,0,0,1-1.06-.6,2.67,2.67,0,0,0-1.64-.72,1.37,1.37,0,0,0-.95.37h0c-.67.73-.56,1.8.31,2.8a5.18,5.18,0,0,0,3.33,1.51l0,0a4.69,4.69,0,0,0,4.71-4.88c0-2.6-2.17-4.78-4-4.85"/><path class="cls-1" d="M319.54,309.92a3.62,3.62,0,0,0,0,7.24,3.39,3.39,0,0,0,3-1.89l76.17-.1a1.69,1.69,0,0,0,0-3.37l-76.11.1a3.46,3.46,0,0,0-3.08-2"/><path class="cls-1" d="M206.67,315.28a3.4,3.4,0,0,0,3,1.88,3.62,3.62,0,0,0,0-7.24,3.42,3.42,0,0,0-3.07,2l-76-.1a1.69,1.69,0,0,0,0,3.37Z"/><path class="cls-1" d="M442.74,323.42a343.2,343.2,0,0,0-76.33-34.11C332.2,279,298.17,273.83,265.25,273.83c-23.8,0-53.58,1.56-94.08,13-43.46,12.32-79.55,34.31-81.06,35.25a2.32,2.32,0,0,0-.79,3.12,2.17,2.17,0,0,0,1.34,1.05A3.45,3.45,0,0,0,92.3,326c1.52-.92,37.13-22.62,80-34.77,40-11.32,69.43-12.85,92.93-12.85,32.51,0,66.14,5.15,100,15.31a339.94,339.94,0,0,1,75.26,33.6,2.12,2.12,0,0,0,3-.76,2.31,2.31,0,0,0-.72-3.11"/><path class="cls-1" d="M253,313.15l-3.74-.08a.39.39,0,0,0-.39.34l-.61,3.55a33.48,33.48,0,0,1-.93,3.26,10.2,10.2,0,0,1-1.45,3,3.74,3.74,0,0,1-2.35,1.42,1.54,1.54,0,0,1-1.13-1,8.56,8.56,0,0,1-.43-2.19s-.1-17.54-.1-25.71c0-2.36,0-4,0-4.18h0v0s0,0,0-.06v0a4.26,4.26,0,0,1,.15-1.16,3.22,3.22,0,0,1,.54-.91l.13-.18a3.45,3.45,0,0,1,1.59-.92.4.4,0,0,0,.26-.38l0-3a.42.42,0,0,0-.15-.3.38.38,0,0,0-.27-.1l-14,1.19a.4.4,0,0,0-.35.39l0,2.82a.46.46,0,0,0,.25.37l1.26.63a3.1,3.1,0,0,1,.9,1,7.12,7.12,0,0,1,.55,1.78l.19,1.9c0,.45.1,27,.1,27a7.63,7.63,0,0,1-.23,1.4,3.91,3.91,0,0,1-.63,1.25,4.54,4.54,0,0,1-1,.92l-1.15.66a.44.44,0,0,0-.24.37l.09,2.64a.39.39,0,0,0,.38.38l21.2,0a.36.36,0,0,0,.36-.36l1.54-15.19a.4.4,0,0,0-.1-.31.41.41,0,0,0-.27-.13"/><path class="cls-1" d="M270.94,323.85a.46.46,0,0,0-.36-.05l-1.11.41a9.77,9.77,0,0,1-1.81.18,3.9,3.9,0,0,1-2.49-.82,4.74,4.74,0,0,1-.94-3c0-.87,0-7,0-17.35v-.45c0-.12,0-.43.15-.55a1.34,1.34,0,0,1,.65-.17l.09,0c.07,0,.13,0,.19,0h4.25a.42.42,0,0,0,.36-.26,11.91,11.91,0,0,0,.47-2.21l.11-1.89v-.17a.44.44,0,0,0-.38-.44h-4.9a1.68,1.68,0,0,1-.9-.08.9.9,0,0,1-.18-.59v-7.28a.41.41,0,0,0-.14-.32.36.36,0,0,0-.33-.06l-8,2.18a.38.38,0,0,0-.28.38v5.16c0,.29,0,.5-.14.56a.92.92,0,0,1-.6.1h-3.89a.39.39,0,0,0-.38.4l0,4a.37.37,0,0,0,.11.27.34.34,0,0,0,.27.12h3.72a1,1,0,0,1,.77.2,1.1,1.1,0,0,1,.17.73v19.35a10.48,10.48,0,0,0,.49,2.73,6.44,6.44,0,0,0,3.79,4,8.24,8.24,0,0,0,2.12.49h4.07l1.34-.16.38-.1,1.58-.49a3.43,3.43,0,0,0,1.41-.89c.45-.43.55-.73.55-.92l0-2.74a.42.42,0,0,0-.18-.32"/><path class="cls-1" d="M287.81,320.13a3.3,3.3,0,0,1-3.16,3.05,3.19,3.19,0,0,1-3.3-3.07c0-.89,0-15.1,0-15.55,0-.69.45-3.29,3.11-3.29a3.2,3.2,0,0,1,3.38,3c0,.4,0,15,0,15.84m12.13,5.37a4.29,4.29,0,0,1-2.43-.73,4.19,4.19,0,0,1-1.09-2.75c0-1.08-.06-36.13-.06-36.49a.41.41,0,0,0-.31-.39,59.47,59.47,0,0,0-7.84-.82l-4.65,0a.46.46,0,0,0-.27.11.38.38,0,0,0-.11.28v3a.39.39,0,0,0,.35.4,4.05,4.05,0,0,1,1.22.26,5.21,5.21,0,0,1,1.49,1.05,6.28,6.28,0,0,1,1.14,1.6,3.92,3.92,0,0,1,.29,1.31v.09a.39.39,0,0,1-.05.1s0,0,.05,0v4.59a1.44,1.44,0,0,1-.18.66.52.52,0,0,1-.42.2l-.54-.27a10.82,10.82,0,0,0-1.72-.82,11.35,11.35,0,0,0-3.05-.53c-.6,0-4.34.41-6.34,2.19-2.52,2.25-2.51,6.26-2.51,6.31s0,18.44,0,18.44a6.51,6.51,0,0,0,1.65,3.88,7.62,7.62,0,0,0,4.68,2.32s3.37.38,5.46-.72a16.45,16.45,0,0,0,2.3-1.59h.36a5.52,5.52,0,0,0,1,1.49,2.15,2.15,0,0,0,1.37.54h10.16a.39.39,0,0,0,.38-.41V325.9a.4.4,0,0,0-.37-.4"/><path class="cls-1" d="M208.6,232.74c-.41,0-3.81,0-4.15,0a.6.6,0,0,1-.57-.73c.09-.67,2.33-20,2.34-20.09a.15.15,0,0,1,.14-.13.18.18,0,0,1,.16.13c0,.08,2.53,19.81,2.58,20.1a.58.58,0,0,1-.5.73m-3.08-30.37-4.81,32.73h11.57L207,202.35Z"/><path class="cls-1" d="M213.88,236.51a1.47,1.47,0,0,1-1.16.57H200.28a1.51,1.51,0,0,1-1.17-.56,1.62,1.62,0,0,1-.33-1.26l4.92-33.52a1.53,1.53,0,0,1,1.49-1.34l2.15,0a1.54,1.54,0,0,1,1.51,1.32l5.37,33.54a1.59,1.59,0,0,1-.34,1.27m17.55,24.34a6.9,6.9,0,0,1-1.11-1.7,11.6,11.6,0,0,1-.65-2v0l-8.76-56s-.32-1.77-.42-2.58a14.31,14.31,0,0,1-.13-1.93,6.12,6.12,0,0,1,.54-2.66,5.88,5.88,0,0,1,1.56-2,6.86,6.86,0,0,1,2.55-1.33,7.42,7.42,0,0,1,1.91-.24H227v-2.67H193.8l0,2.59a9,9,0,0,1,2.33.91,6.61,6.61,0,0,1,2.07,2,8.7,8.7,0,0,1,1.09,3.06,11,11,0,0,1-.11,2.92l-9.34,63.27a24.47,24.47,0,0,1-1.22,4.7A20.15,20.15,0,0,1,187,269.6a14.91,14.91,0,0,1-1.76,1.79v2.25l14.41-3v-2.57a6.31,6.31,0,0,1-1.47-.22,5.36,5.36,0,0,1-2.17-1.21,4.8,4.8,0,0,1-1.12-2,5.33,5.33,0,0,1,0-1.89l3-20.09a1.08,1.08,0,0,1,.35-.69,1.22,1.22,0,0,1,.68-.21h14.89a1.43,1.43,0,0,1,.77.23,1.11,1.11,0,0,1,.49.76l2.57,15.32a12.51,12.51,0,0,1,.16,2.55,6.49,6.49,0,0,1-.62,2.24,6.92,6.92,0,0,1-1.68,2,8,8,0,0,1-1.66.94v2.54l20.4-2.29v-3.32a9.62,9.62,0,0,1-1.07-.48,6.82,6.82,0,0,1-1.74-1.33"/><path class="cls-1" d="M271.22,191.23c0,.12-.05.78-.38,1a1,1,0,0,1-1-.15h0v0l0,0a38.28,38.28,0,0,0-5.26-3.62,22,22,0,0,0-4.77-1.77,26.43,26.43,0,0,0-4.73-.55h-.06a18.6,18.6,0,0,0-6.17,1.26,14.32,14.32,0,0,0-4.15,2.95,11.38,11.38,0,0,0-3.13,6.68l0,16.45a18.76,18.76,0,0,0,.37,3.47,14.55,14.55,0,0,0,1.25,3.44,15.32,15.32,0,0,0,2.33,3.1,16.67,16.67,0,0,0,2,1.73L259.27,233a26.92,26.92,0,0,1,2.27,1.65,8.8,8.8,0,0,1,1.43,1.57l0,.08a7.4,7.4,0,0,1,1,2,15.14,15.14,0,0,1,.4,3v7.46a17.89,17.89,0,0,1-.51,4.23,7.31,7.31,0,0,1-1.32,2.57,9.93,9.93,0,0,1-3.42,2.79,14.26,14.26,0,0,1-4.23.74,7.87,7.87,0,0,1-2.51-.38,9.87,9.87,0,0,1-4-2.71,10.27,10.27,0,0,1-1.95-3.63,12.07,12.07,0,0,1-.47-2.93l-.07-8.89h-4.48l0,24.81h4.65l-.05-3.62a1.21,1.21,0,0,1,.63-1.19.84.84,0,0,1,.29,0,1.92,1.92,0,0,1,1,.43,47.3,47.3,0,0,0,5.66,3.17,21.6,21.6,0,0,0,7.63,1.33,15.43,15.43,0,0,0,7.06-1.42,16.11,16.11,0,0,0,5.13-4.18,14.17,14.17,0,0,0,2.86-7.42V238.45a19,19,0,0,0-.37-3.36,16,16,0,0,0-1.3-3.62,13.74,13.74,0,0,0-2.1-3,22.39,22.39,0,0,0-2.73-2.37l-11.61-7.52a20.06,20.06,0,0,1-3.55-3,11.06,11.06,0,0,1-1.37-2.54,10.35,10.35,0,0,1-.5-2.73v-9.62a8.41,8.41,0,0,1,.72-3.17,8.58,8.58,0,0,1,1.85-2.52,8.81,8.81,0,0,1,5.76-2.35,10.35,10.35,0,0,1,7.92,4.21l0,0a13.4,13.4,0,0,1,1.71,3.26,17,17,0,0,1,.66,5.25V209h4.84V187.77h-5v3.46Z"/><path class="cls-1" d="M76.8,299.75c0,.07-.91,6.64-1.2,8.19a18.4,18.4,0,0,1-1.15,3.59l0,.13A11.56,11.56,0,0,1,71,316.19a12.91,12.91,0,0,1-7.19,3l-9.33,0c-.18,0-1.08-.06-1.08-1.37l0-121.14h0a7.74,7.74,0,0,1,2.22-4.45,8.17,8.17,0,0,1,3.83-1.91v-2.5H33.24v2.41a8,8,0,0,1,4.21,2.43,8.14,8.14,0,0,1,1.76,4.52c0,4.77.24,116.53.24,116.7a9.81,9.81,0,0,1-1.11,5,7.79,7.79,0,0,1-4.66,3.39l0,3.1,46.71-.12,3.18-38H78.33Z"/><path class="cls-1" d="M284.74,190.44a10.13,10.13,0,0,1,1.84.65,8.09,8.09,0,0,1,2.25,1.65,6.39,6.39,0,0,1,1.38,2.21,9.19,9.19,0,0,1,.45,2.54L290.8,255a11.17,11.17,0,0,1-.35,2.39,7.26,7.26,0,0,1-1.22,2.44A8.05,8.05,0,0,1,287,261.7a9,9,0,0,1-2,.73v2.92c1.51.15,8.29.83,12,1.07,1.61.11,2.68.24,8.65.91l2.8.33V265a7.12,7.12,0,0,1-1.52-.49,9.05,9.05,0,0,1-2.53-1.7,8.61,8.61,0,0,1-1.51-2.32,7.85,7.85,0,0,1-.49-2.35l-.08-27.37a1.76,1.76,0,0,1,.27-1.12,1.37,1.37,0,0,1,1.07-.31l.37,0h6a5.5,5.5,0,0,1,4,1.92,8.78,8.78,0,0,1,1.63,2.49,12.72,12.72,0,0,1,.59,1.92h4.34V218.05h-4.44a8.18,8.18,0,0,1-.5,1.71,9.87,9.87,0,0,1-1.45,2.34,6.52,6.52,0,0,1-1.91,1.52,6.43,6.43,0,0,1-2,.5h-6.91a1.43,1.43,0,0,1-.85-.22,1.19,1.19,0,0,1-.26-.9l0-28a1.08,1.08,0,0,1,.25-.93,1.17,1.17,0,0,1,.85-.28h8.38a11.37,11.37,0,0,1,3.2.59,8.83,8.83,0,0,1,2.78,1.69,9.7,9.7,0,0,1,2.12,2.92,8.54,8.54,0,0,1,.66,2.89v4.79h5.31v-18.9h-41Z"/><path class="cls-1" d="M178.53,243.19h-6.16l.07,19.52a16.77,16.77,0,0,1-.55,4,11.13,11.13,0,0,1-2.11,4A11.67,11.67,0,0,1,166,273.4a14,14,0,0,1-4.43.81,8.55,8.55,0,0,1-2.75-.45,10.31,10.31,0,0,1-3.39-2.17,12.68,12.68,0,0,1-2.44-3.74,11.24,11.24,0,0,1-.71-3.29s.11-58.93.06-61.84c-.05-3.74,1-6.37,3.51-8.51a10.21,10.21,0,0,1,6.29-2.32,8.42,8.42,0,0,1,5.22,1.84c4.63,3.53,4.93,10.81,4.93,10.89v9.76h6.09l-.06-26.56H172v1.7a1,1,0,0,1-.47,1,1.93,1.93,0,0,1-1.64-.26,34.43,34.43,0,0,0-4.14-2.05,29.36,29.36,0,0,0-7.76-2,12.14,12.14,0,0,0-1.36-.07,21.32,21.32,0,0,0-8.55,2.05,16.42,16.42,0,0,0-6.9,6.38,13.12,13.12,0,0,0-1.41,4.92v67.36a18.5,18.5,0,0,0,1.11,6.27,15.51,15.51,0,0,0,4.13,5.42c1.55,1.37,4.87,2.52,7.28,3a24.49,24.49,0,0,0,4.77.47h1.38a21.53,21.53,0,0,0,6.7-1,23,23,0,0,0,8-5.21,18.78,18.78,0,0,0,4.45-7,21.49,21.49,0,0,0,.91-6.5V243.19Z"/><path class="cls-1" d="M399.78,274.86v0c-.29.84-1.88,5.09-5.41,6.47a7.47,7.47,0,0,1-3.11.55,17.11,17.11,0,0,1-6.88-1.66l-.57-.26v-1.3c0-.79-.06-80.77,0-81.71a6.13,6.13,0,0,1,.62-2.46,7.92,7.92,0,0,1,1.73-2.3,9.82,9.82,0,0,1,3.49-1.86v-2.61H365.26l-.1,2.69c.94.34,3.32,1.32,4.24,2.46a7.22,7.22,0,0,1,1.31,2.52,11.12,11.12,0,0,1,.4,2.79v72.17a11.6,11.6,0,0,1-.4,2.64,5.21,5.21,0,0,1-1.17,2.14,5.51,5.51,0,0,1-2.16,1.35,9.09,9.09,0,0,1-1.95.43v3c1.6.51,10,3.17,16,5.29s17.7,6.74,20,7.66l5.57-34.27h-2.84c-2.12,7.73-4.4,16.07-4.44,16.2"/><path class="cls-1" d="M355.21,273.71a11.51,11.51,0,0,1-2.65-2.29,8.45,8.45,0,0,1-1.75-5.33V197.75h0a16.18,16.18,0,0,1,.46-2.59,7.44,7.44,0,0,1,.89-2,11.21,11.21,0,0,1,1.9-1.85,6.84,6.84,0,0,1,1-.66v-3l-21.23.08v2.73a9.5,9.5,0,0,1,1.29.81,7.74,7.74,0,0,1,1.47,1.37v0a7.84,7.84,0,0,1,1.16,2,10,10,0,0,1,.48,2.3h0l.07,64.1a10.86,10.86,0,0,1-.28,2.3A7.73,7.73,0,0,1,337,266a8.37,8.37,0,0,1-2.3,2.11,6.79,6.79,0,0,1-2.1.75v2.87c2.29.54,21.31,5.09,24.19,5.8v-3.06a8.19,8.19,0,0,1-1.57-.74"/><path class="cls-1" d="M477.08,321.87a7.3,7.3,0,0,1-2.36-1.4,9.44,9.44,0,0,1-1.66-2.35,7,7,0,0,1-.56-2.49l-.06-118.13a9.05,9.05,0,0,1,.46-2.38,7.15,7.15,0,0,1,1.53-2.4,7.93,7.93,0,0,1,2.18-1.52,12.79,12.79,0,0,1,2-.72v-2.77h-24.7l-10.88,54.71v0h0a2.06,2.06,0,0,1-.35.7,1.11,1.11,0,0,1-.73.29h0l-3,0h0A1.35,1.35,0,0,1,438,243a3,3,0,0,1-.45-1l-10.94-54.21H406.41l0,2.78a9.37,9.37,0,0,1,2,.7,8.26,8.26,0,0,1,2.41,1.85,7.18,7.18,0,0,1,1.38,2.73,7.62,7.62,0,0,1,.22,2.21l.06,87a6.29,6.29,0,0,1-.36,2.08,6.82,6.82,0,0,1-1.51,2.36,7.06,7.06,0,0,1-2.18,1.4,13.89,13.89,0,0,1-2.09.63v3.57c.9.4,4.05,1.83,7.94,3.68,3.71,1.77,8,3.84,9.4,4.54v-2.78a13.85,13.85,0,0,1-1.89-1,9,9,0,0,1-2.15-1.86,10.79,10.79,0,0,1-1.45-2.78,10,10,0,0,1-.46-2.69l.06-71.5a1.2,1.2,0,0,1,.29-.83.94.94,0,0,1,.68-.23h4a.86.86,0,0,1,.55.16,1.48,1.48,0,0,1,.35.79l14.56,69.95,14-69.92a1.79,1.79,0,0,1,.37-.82,1.07,1.07,0,0,1,.69-.18h.12l3.63,0h.12a1.13,1.13,0,0,1,.74.25,1.44,1.44,0,0,1,.35,1L458.2,314v0c0,1-.13,3.62-.93,4.9a7.31,7.31,0,0,1-4.9,3.52v2.91H478.8l0-3a10.49,10.49,0,0,1-1.7-.43"/></svg>