<?xml version="1.0" encoding="UTF-8"?><svg id="Layer_1" xmlns="http://www.w3.org/2000/svg" viewBox="0 0 512 512"><defs><style>.cls-1{fill:#f7941d;}.cls-2{fill:#ed1c24;}</style></defs><g id="g1438"><g id="g1406"><g id="g1390"><path id="path1386" class="cls-2" d="M322.08,233.77h-79.49c-1.57,0-2.36,1.18-2.36,2.36v6.3c0,1.57,1.18,2.36,2.36,2.36h59.42v33.06c-1.57-2.36-3.54-4.72-5.51-7.08-7.08-7.08-14.56-10.63-22.43-10.63-6.3,0-11.41,3.15-15.74,8.66-3.54,4.72-5.51,10.23-5.51,15.35s.79,11.81,4.72,18.1c4.72,7.48,12.59,9.84,19.68,9.84,9.05,0,16.53-6.3,16.53-14.56,0-4.72-2.36-8.66-6.69-11.41l-4.33-2.36v7.08c-.39,1.97-3.54,4.72-7.08,4.72-3.15,0-5.9-1.18-7.87-3.15-1.18-1.18-1.97-3.54-1.57-5.12,0-2.36.79-4.33,2.36-6.3,1.97-2.36,3.94-3.54,7.08-3.54,7.87,0,14.56,3.54,20.07,11.41,4.33,6.69,6.69,12.99,6.69,20.07v16.53l11.81,7.08c.39.39.79.39,1.18.39,1.57,0,2.36-1.18,2.36-2.36v-85.4h4.72c1.57,0,2.36-1.18,2.36-2.36v-6.3c0-1.57-1.18-2.75-2.75-2.75h0Z"/><path id="path1388" class="cls-2" d="M481.06,233.77h-100.74c-1.57,0-2.36,1.18-2.36,2.36v11.02c-9.84-10.23-18.5-15.35-26.37-15.35s-13.77,1.57-19.28,5.9c-5.12,3.94-8.26,9.05-8.26,14.95,0,17.71,19.68,17.32,24.79,14.95.79-.39,1.97-1.18,3.15-1.18,3.94,0,5.51,3.15,5.51,5.9,0,3.94-5.9,7.48-12.99,7.48-3.94,0-6.3-1.18-7.87-3.54l-3.15-4.72-1.97,5.51c-.39,1.18-1.18,2.75-1.18,4.72,0,3.94,1.97,7.87,5.9,11.41,3.54,3.15,7.87,4.72,12.59,4.72,7.48,0,13.77-2.75,17.71-8.26,3.54-4.33,5.12-9.44,5.12-15.35,0-3.15-1.18-6.69-3.94-10.63-3.15-4.72-7.08-7.08-11.41-7.08-1.57,0-3.54.39-5.51,1.18-.79.39-2.36.79-2.75.79-.79,0-1.97-.39-2.75-1.57-.79-.79-1.57-1.97-1.57-3.94,0-4.33,3.94-8.66,11.02-8.66h.39c4.72,0,9.44,2.36,13.77,6.69,3.54,3.54,6.3,7.08,8.66,11.02v62.57l11.81,7.08c.39.39.79.39,1.18.39,1.57,0,2.36-1.18,2.36-2.36v-84.61h18.1v54.7l14.17,5.9h.79c1.18,0,2.36-.79,2.36-2.36v-.39c2.36-16.13,9.44-27.15,21.25-33.84v3.15c0,2.36,0,8.26.39,11.41,0,1.97,0,3.15.39,4.33,0,6.3.79,15.74,2.75,22.82,3.94,13.38,10.63,16.53,15.35,16.53h.39c2.75,0,5.12-.79,6.69-2.36.79-.79,1.97-2.36,1.97-5.12,0-2.36-.39-4.33-1.18-5.9l-1.18-1.97-2.36.39c-2.36.79-3.54.79-3.54.39h-.39q-.79,0-1.18-.39c-.79-.39-2.36-1.57-3.54-5.9-.79-3.15-1.18-7.48-1.18-9.84,0-17.71,3.54-31.09,9.44-33.84h.39c.79-.39,1.57-1.18,1.57-2.36,0-.39,0-.79-.39-1.18v-.39c-2.75-5.51-8.66-9.44-16.53-11.41h-1.57c-6.3,1.18-13.77,5.51-23.22,13.38-2.36,1.97-4.72,3.94-6.69,5.9v-21.64h55.09c1.57,0,2.36-1.18,2.36-2.36v-6.3c.39-1.57-.79-2.75-2.36-2.75h0Z"/></g><path id="path1392" class="cls-2" d="M214.25,262.89c0,2.75,0,5.12-.39,7.48-.79,11.02-3.54,21.25-7.87,30.7-1.57,3.94-3.54,7.48-5.9,11.02-16.53,25.97-45.65,43.29-78.71,43.29-14.17,0-27.55-3.15-39.35-8.66-31.48-14.56-53.52-46.83-53.52-83.82s21.25-68.08,51.55-83.04c-2.36,3.15-4.72,6.3-6.69,9.84,0,.39-.39.39-.39.79-1.18,1.18-2.36,1.97-3.54,3.15-1.57,1.18-2.75,2.75-4.33,3.94l-.79.79-.79.79c-.39.39-.79,1.18-1.57,1.57-.79,1.18-1.97,2.36-2.75,3.54-3.94,5.12-7.08,10.63-9.44,16.53-.39.39-.39,1.18-.79,1.57-.39.79-.39,1.57-.79,1.97,0,.39-.39.79-.39,1.18-.39,1.18-.79,1.97-1.18,3.15-.39.79-.39,1.57-.79,1.97,0,.39-.39.79-.39,1.18,0,.79-.39,1.57-.39,2.36l-1.18,7.08c0,.79,0,1.18-.39,1.97v9.44c0,25.19,11.41,48.01,29.91,62.57,14.17,11.41,31.88,18.5,51.16,18.5,17.71,0,33.84-5.51,47.22-15.35,9.84-7.08,17.71-16.13,23.61-26.76.79-1.57,1.57-2.75,2.36-4.33,4.72-9.84,7.48-20.46,7.48-31.88v-2.75c0-2.75,0-5.12-.39-7.87l.39.39c1.18,1.18,2.36,1.97,3.54,3.15,1.18-1.97,2.36-3.54,3.54-5.51.79,3.54,1.18,7.08,1.57,11.02.39,3.54.39,6.3.39,9.05h0Z"/><path id="path1394" class="cls-1" d="M132.39,188.51l-17.32-31.88c-28.73,12.99-48.4,41.71-48.4,75.16,0,16.92,5.12,32.66,13.77,45.65-.79-4.33-.79-8.66-.79-13.38.39-34.24,22.04-63.36,52.73-75.56Z"/><path id="path1396" class="cls-2" d="M146.17,204.25c7.08-1.97,14.95-2.75,22.43-2.75,4.72,0,9.84.39,14.17,1.18l-.39-14.17-.79-28.33c-3.15-.39-6.69-.79-10.23-.79-15.74,0-30.3,5.12-42.11,13.38l9.44,17.32c-16.92,5.9-30.7,17.71-39.35,33.06-4.33,7.48-7.48,16.13-8.66,25.19,2.36-4.72,5.12-9.05,8.26-12.99,11.41-14.95,27.94-26.37,47.22-31.09Z"/><path id="path1398" class="cls-1" d="M187.49,188.12l.79,20.07c-6.69-1.97-13.38-3.15-20.86-3.15-13.77,0-26.76,3.94-38.17,10.63-14.17,8.66-25.19,22.43-30.7,38.57,5.51-7.48,12.2-14.17,20.07-19.28,11.41-7.48,25.19-11.81,39.75-11.81,11.02,0,21.25,2.36,30.7,6.69,7.08,3.15,13.38,7.48,18.89,12.99l11.02-16.53,14.17-21.64c-12.59-10.23-28.33-16.53-45.65-16.53h0Z"/><path id="path1400" class="cls-1" d="M205.2,253.44v2.75c0,16.53-6.69,30.3-7.48,31.88-.79,1.57-1.57,2.75-2.36,4.33-5.9,10.63-13.77,19.68-23.61,26.76-13.38,9.44-29.51,15.35-47.22,15.35-19.28,0-37.39-6.69-51.16-18.5-18.1-14.95-29.91-37.39-29.91-62.57v-9.44c0-.79,0-1.18.39-1.97l1.18-7.08c0-.79.39-1.57.39-2.36,0-.39.39-.79.39-1.18.39-.79.39-1.57.79-1.97.39-1.18.79-2.36,1.18-3.15,0-.39.39-.79.39-1.18.39-.79.39-1.57.79-1.97.39-.39.39-1.18.79-1.57,2.36-5.9,5.9-11.41,9.44-16.53.79-1.18,1.97-2.36,2.75-3.54.39-.39.79-1.18,1.57-1.57.39-.39.39-.79.79-.79.39-.39.39-.79.79-.79,1.18-1.57,2.75-2.75,4.33-3.94,1.18-1.18,2.36-1.97,3.54-3.15,0,.39-.39.39-.39.79s-.39.79-.39.79c-4.72,9.44-7.87,20.86-9.05,32.66-.39,3.15-.39,6.3-.39,9.84,0,42.5,24.79,76.74,55.49,76.74h3.15c4.33,0,8.66-.79,12.99-1.57,20.86-5.51,36.21-24.79,36.21-47.22v-1.18c-.39-13.38-5.9-25.58-14.95-33.84,6.3,0,12.59,1.18,18.5,2.75,11.41,2.75,21.64,8.26,30.7,15.35l.39.39c-.39,1.57,0,4.33,0,6.69h0Z"/><g id="g1404"><path id="path1402" class="cls-1" d="M205.2,253.44v2.75c0,17.32-7.87,32.27-7.87,32.27-.79,1.57-1.57,2.75-2.36,4.33-5.9,10.63-14.17,19.68-24.01,26.76-13.77,10.23-30.3,15.35-47.62,15.35-18.89,0-36.99-6.69-51.55-18.5-18.89-15.35-29.91-38.57-29.91-62.97s11.02-47.62,29.91-62.97l.79-.79c0,.39-.39.39-.39.79s-.39.39-.39.79c-18.5,15.35-29.12,37.78-29.12,62.18s10.63,46.83,29.51,62.57c14.17,11.81,32.66,18.1,51.16,18.1,16.92,0,33.45-5.12,47.22-15.35,9.84-7.08,17.71-16.13,23.61-26.76.79-1.57,1.57-2.75,1.97-4.33,0,0,7.87-14.56,7.87-31.88v-2.75c0-2.75,0-5.12-.39-7.87v-.39l.39.39.39.39c.79,3.15.79,5.51.79,7.87h0Z"/></g></g></g></svg>