<?xml version="1.0" encoding="UTF-8"?><svg id="Layer_1" xmlns="http://www.w3.org/2000/svg" xmlns:xlink="http://www.w3.org/1999/xlink" viewBox="0 0 512 512"><defs><style>.cls-1{fill:#17314b;}.cls-2{fill:#ed1c24;}.cls-3{fill:url(#linear-gradient);}</style><linearGradient id="linear-gradient" x1="-7861.85" y1="-5702.39" x2="-7860.34" y2="-5702.39" gradientTransform="translate(703877.69 -458839.26) scale(89.53 -80.51)" gradientUnits="userSpaceOnUse"><stop offset="0" stop-color="#ed1c24"/><stop offset=".33" stop-color="#ed1c24"/><stop offset=".39" stop-color="#aa161e"/><stop offset=".39" stop-color="#aa161e"/><stop offset=".57" stop-color="#aa161e" stop-opacity=".99"/><stop offset=".64" stop-color="#ed1c24"/><stop offset="1" stop-color="#ed1c24"/></linearGradient></defs><path id="path30" class="cls-1" d="M228.04,211.57v25.02h-.12l-16.52-28.98-9.16,4.47v37.14h8.12v-29.67h.11l16.98,29.67h8.69v-41.61l-8.12,3.96"/><path id="path32" class="cls-1" d="M254.66,233.46l5.34-16.47h.11l5.16,16.47h-10.61ZM265.14,207.6h-.01l-12.11,5.91-12.73,35.7h9.16l2.89-8.58h15.36l2.67,8.58h9.45l-14.67-41.62"/><path id="path34" class="cls-1" d="M424.68,233.46l5.34-16.47h.12l5.15,16.47h-10.61ZM435.19,207.6h-.02l-12.12,5.91-12.73,35.7h9.16l2.89-8.58h15.36l2.68,8.58h9.44l-14.66-41.62"/><path id="path36" class="cls-1" d="M308.5,207.61h-29.58l-4.23,7.33v.04h12.57v34.25h8.7v-34.25h8.3l4.24-7.36"/><path id="path38" class="cls-1" d="M311.97,211.84v37.38h8.7v-41.61h-.02l-8.68,4.23"/><path id="path40" class="cls-1" d="M346.39,242.95c-4.69,0-11.31-2.9-11.31-14.55s6.62-14.54,11.31-14.54,11.29,2.89,11.29,14.54-6.6,14.55-11.29,14.55M346.39,206.5c-.39,0-.82,0-1.28.04l-14.39,7.02c-2.56,3.27-4.33,8-4.33,14.84,0,19.53,14.48,21.91,20,21.91s19.98-2.38,19.98-21.91-14.48-21.9-19.98-21.9"/><path id="path42" class="cls-1" d="M397.89,211.57v25.02h-.11l-16.53-28.98-9.14,4.47v37.14h8.11v-29.67h.11l17,29.67h8.69v-41.61l-8.12,3.96"/><path id="path44" class="cls-1" d="M483.5,241.69h-20.68v-34.08l-8.7,4.24v37.37h25.04l4.34-7.53"/><path id="path46" class="cls-1" d="M221.26,298.21h-10.66v-11.11h11.07c3.13,0,6.26,1.39,6.26,5.03,0,4.23-2.43,6.08-6.67,6.08M210.59,270.97h9.97c3.94,0,6.38,1.04,6.38,4.46s-2.72,4.64-6.14,4.64h-10.2v-9.11h0ZM230.18,282.97c1.74-.88,5.1-2.55,5.1-8.52,0-4.29-2.61-10.66-12.81-10.66h-11.45l-8.77,4.28v37.33h17.61c8.52,0,10.79-1.45,13.16-3.77,2.2-2.15,3.59-5.27,3.59-8.58,0-4.11-1.34-8.16-6.44-10.08"/><path id="path48" class="cls-1" d="M306.62,267.75v25.01h-.11l-16.51-28.98-9.16,4.47v37.14h8.11v-29.67h.12l16.98,29.67h8.7v-41.61l-8.12,3.96"/><path id="path50" class="cls-1" d="M252.06,289.63l5.33-16.45h.12l5.16,16.45h-10.61ZM262.55,263.79h-.01l-12.12,5.91-12.73,35.71h9.15l2.89-8.58h15.36l2.66,8.58h9.46l-14.67-41.62"/><path id="path52" class="cls-1" d="M357.81,263.8l-13.47,2.37-13.64,14.54v-16.91l-8.69,4.24v37.36h8.69v-14.09l4.06-4.17,12.87,18.26h11.17l-17.95-24.58,16.95-17.03"/><path id="path54" class="cls-2" d="M168.43,207.26v97.8l-52.55,14.06c-2.41.56-4.14.93-5.88.29-1.33-.57-2.42-2-3.36-3.33l-16.2-22.28c-.94-1.34-2.02-2.81-3.34-3.34-1.73-.67-3.48-.26-5.9.27l-52.69,14.09v-97.82l52.5-14.09c2.4-.53,4.16-.96,5.89-.27,1.33.55,2.46,2.03,3.4,3.37l16.27,22.29c.95,1.35,2,2.84,3.36,3.35,1.75.66,3.48.28,5.88-.27l52.64-14.12"/><path id="path80" class="cls-3" d="M78.55,198.23l-45.91,12.35v93.11l48.55-12.97c2.43-.52,4.17-.94,5.9-.27,1.33.54,2.4,2,3.34,3.34l16.21,22.27c.93,1.34,2.02,2.77,3.35,3.34,1.74.64,3.48.27,5.88-.29l52.55-14.06v-91.8l-54.15,14.51c-2.43.55-4.15.95-5.94.29-1.37-.54-2.49-1.98-3.49-3.32l-17.08-23.41c-1.01-1.33-2-2.82-3.34-3.36-.65-.25-1.3-.35-1.99-.35-1.15,0-2.39.28-3.89.61"/></svg>