<?xml version="1.0" encoding="UTF-8"?><svg id="Layer_1" xmlns="http://www.w3.org/2000/svg" viewBox="0 0 512 512"><defs><style>.cls-1{fill:#2f2e0c;}</style></defs><path class="cls-1" d="M146.67,223.49c-7.77,1.36-11.94,4.31-14.51,17.91v-18.36l-25.26,7.94v54.31h27.8v-28.59c0-4.22,2.74-7.96,6.76-9.22l11.07-3.48v-20.95s-4.41.19-5.87.44h0Z"/><path class="cls-1" d="M242.23,221.24h0c-10.28,0-17.75,5.8-21.28,12.83v-11.58l-27.01,8.49v54.31h27.8v-36.7c0-5.46,2.97-7.43,6.12-7.43s5.33,1.74,5.33,6.36v37.77h27.8v-41.14c0-15.42-6.68-22.91-18.76-22.91Z"/><path class="cls-1" d="M361.92,221.03v2.01h-7.18v19.31h7.18v42.94h27.8v-42.94h11.96v-19.31h-11.96v-1.96c0-3.58,2.89-6.48,6.46-6.48h5.5v-16.89h-16.5c-12.85,0-23.26,10.44-23.26,23.32Z"/><path class="cls-1" d="M157.76,285.3h27.8v-51.68l-27.8,8.74v42.95Z"/><path class="cls-1" d="M183.31,207.4c-2.74-2.27-6.9-3.56-11.62-3.56-2.29,0-4.46.31-6.4.89l-.5.16c-4.85,1.61-8.14,4.98-8.14,9.47,0,.47.03.93.11,1.38.88,5.62,7.19,9.15,14.94,9.15,8.42,0,15.05-4.11,15.05-10.53,0-2.82-1.28-5.19-3.43-6.97h0Z"/><path class="cls-1" d="M301.71,197.13l-27.8,8.74v17.18h-7.18v19.31h7.18v22.4c0,11.34,9.18,20.54,20.49,20.54h19.27v-19.07h-6.31c-3.12,0-5.65-2.53-5.65-5.67v-18.21h11.96v-19.31h-11.96v-25.92Z"/><path class="cls-1" d="M345.81,207.4c-2.74-2.27-6.9-3.56-11.63-3.56-2.29,0-4.46.31-6.4.89l-.5.16c-4.85,1.61-8.14,4.98-8.14,9.47,0,.47.03.93.11,1.38.88,5.62,7.19,9.15,14.94,9.15,8.43,0,15.05-4.11,15.05-10.53,0-2.82-1.27-5.19-3.42-6.97h0Z"/><path class="cls-1" d="M320.84,285.3h27.8v-51.68l-27.8,8.74v42.95Z"/><path class="cls-1" d="M453.59,223.04l-10.37,40.25c-.51,1.64-2.04,2.77-3.76,2.77-1.09,0-2.07-.44-2.78-1.15s-1.15-1.7-1.15-2.79v-39.07h-26.97v37.45c0,7.07,1.94,14.01,5.23,18.54,5.77,7.92,18.66,9.16,25.98,2.7l-7.81,33.14h27.02l24.52-91.83h-29.91Z"/><path class="cls-1" d="M76.44,199.46H28.5v23.58h44.39c2.05,0,3.84,1.52,4.03,3.57.1,1.01-.19,1.96-.74,2.71-.48.66-1.17,1.17-1.99,1.43l-45.68,14.35v40.19h29.77v-25.5c5.47-1.72,10.96-3.42,16.41-5.22,6.71-2.21,13.77-4.04,19.4-8.55,5.85-4.68,8.97-12.49,8.97-19.9,0-14.73-11.91-26.67-26.61-26.67Z"/></svg>