<?xml version="1.0" encoding="UTF-8"?><svg id="Layer_1" xmlns="http://www.w3.org/2000/svg" xmlns:xlink="http://www.w3.org/1999/xlink" viewBox="0 0 512 512"><defs><style>.cls-1{fill:url(#linear-gradient-2);}.cls-2{fill:none;}.cls-3{clip-path:url(#clippath-1);}.cls-4{fill:url(#linear-gradient);}.cls-5{clip-path:url(#clippath);}</style><clipPath id="clippath"><path class="cls-2" d="M274.88,371.25h17.81v-70.4h-17.61l-.2,70.4ZM46.02,310.93h0v-10.13h-17.52v70.45h17.56v-33.46c0-9.78.98-13.16,3.77-16.54,2.52-3.05,6.32-4.75,10.27-4.6,2.44-.07,4.87.41,7.09,1.42l8.61-15.85c-3.79-2.07-8.06-3.13-12.38-3.08-7.76-.32-14.83,4.47-17.42,11.79M104.72,313.86c8.86,0,13.11,7.63,13.11,16.24h-27.89c1.52-10.81,7.05-16.24,14.68-16.24M72.09,336.37c0,23.34,13.41,36.6,36.74,36.6,8.41.17,16.76-1.5,24.46-4.89l-6.02-14.68c-5.37,2.68-11.32,4.01-17.32,3.87-11.5,0-17.91-4.89-19.57-14.33h44.52c.29-3.23.39-6.31.39-9.78,0-17.76-7.29-33.86-29.11-33.86-23.09,0-33.76,18.25-33.76,37.23M141.66,336.51c0,23.29,14.24,36.6,35.67,36.6,7.19.13,14.32-1.38,20.84-4.4l-5.97-15.17c-4.35,2.51-9.31,3.77-14.33,3.62-11.15,0-18.79-6.9-18.79-21.14,0-13.11,6.85-21.14,18.93-21.14,4.98-.1,9.89,1.17,14.19,3.67l6.12-14.97c-6.76-3.11-14.14-4.63-21.58-4.45-21.82,0-35.37,15.12-35.37,37.23M352.04,288.08v12.77h-24.12v-25.1l-17.52,12.23v12.82h-10.86v14.68h10.86v34.54c-1.67,10.92,5.84,21.13,16.76,22.8,2,.31,4.03.31,6.04,0,5.4.04,10.74-1.09,15.66-3.33l-5.92-14.68c-2.28,1.35-4.88,2.08-7.53,2.1-5.23,0-7.49-2.84-7.49-7.88v-33.37h24.12v34.54c-1.67,10.92,5.84,21.13,16.76,22.8,2,.31,4.03.31,6.04,0,5.42.05,10.78-1.08,15.7-3.33l-5.87-14.68c-2.29,1.34-4.88,2.07-7.53,2.1-5.23,0-7.49-2.84-7.49-8.07v-33.37h18.44v-14.68h-18.54v-25.25l-17.52,12.33ZM272.68,281.91c.03,6.08,4.98,10.99,11.06,10.96s10.99-4.98,10.96-11.06c-.03-6.06-4.95-10.96-11.01-10.96s-11.01,4.93-11.01,11.01M205.61,280.05v91.2h17.71v-32.93l22.36,32.93h22.16l-27.79-39.14,28.18-31.26h-22.75l-22.16,25.78v-59l-17.71,12.43Z"/></clipPath><linearGradient id="linear-gradient" x1="-4448.19" y1="-3360.91" x2="-4447.67" y2="-3360.91" gradientTransform="translate(2786381.59 2105597.06) scale(626.4)" gradientUnits="userSpaceOnUse"><stop offset="0" stop-color="#c41974"/><stop offset=".25" stop-color="#ff007f"/><stop offset="1" stop-color="#ff007f"/></linearGradient><clipPath id="clippath-1"><path class="cls-2" d="M327.92,223.64c-.08,15.58,3.43,30.97,10.27,44.96l20.65-14.68c-4.74-10.25-7.13-21.44-7-32.73,0-35.32,25.93-62.09,59.2-62.09s52.4,22.9,52.4,52.45c0,26.47-17.61,43.64-40.46,43.64s-37.28-14.97-37.28-36.25c0-18.74,11.89-31.31,26.17-31.31,10.76,0,16.63,4.89,16.63,12.72,0,8.81-9.1,13.7-18.44,11.11l-9.78,6.95c8.09,10.19,17.61,19.16,28.28,26.62l10.47-7.29c-5.9-4.47-11.52-9.29-16.83-14.43,11.82-1.16,20.82-11.12,20.79-22.99,0-15.8-11.25-27.01-30.87-27.01-23.34,0-42.91,19.23-42.91,46.58,0,30.38,22.21,52.84,54.16,52.84,35.18.2,60.13-26.32,60.13-61.55,0-41.83-29.01-72.41-73.39-72.41s-82.19,35.27-82.19,84.88Z"/></clipPath><linearGradient id="linear-gradient-2" x1="-4447.01" y1="-3350.92" x2="-4446.48" y2="-3350.92" gradientTransform="translate(1382849.25 1041973.77) scale(310.89)" gradientUnits="userSpaceOnUse"><stop offset="0" stop-color="#ff007f"/><stop offset=".5" stop-color="#ff007f"/><stop offset="1" stop-color="#ff593d"/></linearGradient></defs><g class="cls-5"><rect class="cls-4" x="30.97" y="173.38" width="356.91" height="293.89" transform="translate(-145.86 178.05) rotate(-35)"/></g><g class="cls-3"><rect class="cls-1" x="303.51" y="106.26" width="204.41" height="199.12" transform="translate(-44.68 269.93) rotate(-35)"/></g></svg>