<?xml version="1.0" encoding="UTF-8"?><svg id="Layer_1" xmlns="http://www.w3.org/2000/svg" viewBox="0 0 512 512"><path d="M83.36,268.63l13.1,23.97h-24.3l-11.06-20.48h-10.48v20.48h-22.12v-72.61h40.45c16.73,0,27.36,9.29,27.36,25.99,0,10.75-4.95,18.45-12.95,22.66ZM50.62,238.86v14.38h15.71c4.66,0,7.57-2.76,7.57-7.26s-2.91-7.12-7.57-7.12h-15.71ZM166.73,297.97l-66.2-17.86,17.75-66.08,33.1,8.93,33.1,8.93-17.75,66.08ZM154.22,249.32l-18.48-5.08-4.95,18.44,18.48,5.08,4.95-18.45ZM260.29,272.12c0,13.94-8.88,20.48-22.7,20.48h-43.36v-72.61h41.91c13.82,0,22.7,7.12,22.7,19.61,0,7.84-2.91,13.07-8.44,16.7,6.26,2.75,9.89,8.27,9.89,15.82ZM215.77,237.42v10.75h14.4c3.93,0,6.26-1.74,6.26-5.52,0-3.49-2.33-5.23-6.26-5.23h-14.4ZM215.77,275.18h16.15c3.78,0,5.97-2.03,5.97-5.52,0-3.77-2.18-5.52-5.97-5.52h-16.15v11.04ZM271.21,219.99h22.11v51.11h31.72v21.5h-53.84v-72.61ZM406.38,256.3c0,7.47-2.22,14.77-6.38,20.98-4.16,6.21-10.07,11.05-16.98,13.91-6.91,2.86-14.52,3.61-21.86,2.15-7.34-1.46-14.08-5.05-19.37-10.33-5.29-5.28-8.89-12.01-10.35-19.33-1.46-7.32-.71-14.92,2.15-21.82,2.86-6.9,7.71-12.8,13.93-16.95,6.22-4.15,13.54-6.36,21.02-6.36,4.97,0,9.89.96,14.49,2.85,4.59,1.89,8.77,4.67,12.28,8.18,3.51,3.51,6.3,7.67,8.2,12.26,1.9,4.58,2.87,9.5,2.86,14.46h0ZM384.26,256.3c0-9.01-7.13-16.12-15.71-16.12s-15.72,7.12-15.72,16.12,7.13,16.12,15.72,16.12,15.71-7.13,15.71-16.13h0ZM459.64,255.14l23.86,37.47h-26.34l-13.09-21.36-13.53,21.36h-26.77l24.88-36.6-22.84-36.02h26.34l12.08,19.61,11.64-19.61h26.19l-22.41,35.15Z"/></svg>