<svg id="Layer_1" data-name="Layer 1" xmlns="http://www.w3.org/2000/svg" viewBox="0 0 512 512"><defs><style>.cls-1{fill:#328861;}.cls-2{fill:#b2b949;}</style></defs><title>Artboard 1</title><path class="cls-1" d="M67.9,186.45A43.8,43.8,0,0,1,79,186.31,10.84,10.84,0,0,1,86.05,190,10.64,10.64,0,0,1,88,197.45a33.58,33.58,0,0,1-2.27,8.82c-3.24,8.17-6.61,16.28-9.85,24.44-3.65,8.85-7,17.86-9.1,27.23a32.26,32.26,0,0,0-.89,9.73c.2,1.33.59,3,2.08,3.44a10.37,10.37,0,0,0,6.41-1.35c3.94-2.23,6.87-5.82,9.46-9.46a122.63,122.63,0,0,0,10.53-19.79c5.66-13.21,10.72-26.68,16.36-39.89a39.56,39.56,0,0,0,2.86-9.48,38.89,38.89,0,0,0-.19-4,17.28,17.28,0,0,1,7.49-.87,9.61,9.61,0,0,1,9.72,10.21c-.16,5.92-2.84,11.32-5,16.7-3,7.22-6,14.45-8.87,21.74-2.25,5.87-4.45,11.78-6.21,17.82A53.45,53.45,0,0,0,108.1,266c.08,1.54.14,3.3,1.24,4.5s2.94.67,4.33.26c3.43-1.18,6.15-3.76,8.61-6.34A90.76,90.76,0,0,0,133,249.52a231.77,231.77,0,0,0,17.11-36.82,134.18,134.18,0,0,0,4.74-15c.76-3.27,1.53-6.69.72-10,.89-1.13,2.4-1.21,3.72-1.37,3.1-.28,6.41-.16,9.18,1.43a8.33,8.33,0,0,1,3.85,4.8c.89,2.75.57,5.7.18,8.51a88.32,88.32,0,0,1-4.67,16.72,217.12,217.12,0,0,1-9.22,21c-5.2,10.31-11.17,20.38-19.19,28.76a50.79,50.79,0,0,1-17,12,37.73,37.73,0,0,1-15.53,2.87,14.24,14.24,0,0,1-10.93-5.54,25.19,25.19,0,0,1-3-5.69,53.4,53.4,0,0,1-16.67,9.44,33,33,0,0,1-13,1.67A14,14,0,0,1,52.92,276c-3-4.61-3.66-10.27-3.76-15.65.24-10.48,3-20.77,7-30.44,4.12-10.29,8.26-20.57,12.5-30.81a27.09,27.09,0,0,0,1.12-3.17,27.84,27.84,0,0,0-13.28,4.34,20.85,20.85,0,0,0-9.14,12.47c-.64,3-.4,6.48,1.73,8.88,1.58,1.91,4.05,2.62,6.23,3.61a28.83,28.83,0,0,1-13,3,14.13,14.13,0,0,1-11-5.21,13.53,13.53,0,0,1-2.76-9.63c.39-4.18,2.6-7.95,5.21-11.15A39.77,39.77,0,0,1,48,191.86a67.64,67.64,0,0,1,19.87-5.43Zm110,45.08a31.42,31.42,0,0,1,18.13-2.05,16.23,16.23,0,0,1,11.58,9,21.29,21.29,0,0,1,1.92,9.79,17.91,17.91,0,0,0,9-3.07,39.5,39.5,0,0,1,6.23-7.41,34,34,0,0,1,19.86-8.7c4.1-.44,8.48-.23,12.17,1.79a11.45,11.45,0,0,1,5.86,7.69,13.78,13.78,0,0,1-1.37,8.78c-2.52,5-7,8.77-11.75,11.55a56.43,56.43,0,0,1-14.94,5.77c2.25,3,6.16,4,9.72,4.1a28.55,28.55,0,0,0,15.44-5,33.33,33.33,0,0,0,8.36-7.61c3-8.57,5.91-17.21,8.88-25.8,2.64-.16,5.29,0,7.93-.07,3.77,0,7.54-.08,11.32.06-.84,3.06-2.09,6-3,9,1.44-1.23,2.65-2.7,4.11-3.91,4-3.56,9.05-6.36,14.53-6.59,2.43-.15,5.12.41,6.76,2.36,2,2.26,2,5.51,1.47,8.31-1.06,5-4.12,9.38-7.53,13.13a38.3,38.3,0,0,1-6.17,5.49c-3.07.13-6.17,0-9.25,0a42.47,42.47,0,0,0,3.67-5.63,17.57,17.57,0,0,0,1.81-6.24c.06-1.32-.54-3.09-2.09-3.15-2.58-.15-4.71,1.69-6.45,3.37a40.35,40.35,0,0,0-6.41,8.94c-3,8.49-5.82,17.05-8.8,25.54-6.42,0-12.85.07-19.26,0,1-3.19,2.29-6.25,3.11-9.48-1.37.81-2.55,1.86-3.86,2.73-6.21,4.26-13.36,7.4-20.91,8.06-5.68.54-11.73-.23-16.59-3.43a18.08,18.08,0,0,1-7.66-11.26,28.45,28.45,0,0,1,.23-11.8,54.06,54.06,0,0,1-5.59,1.47c-.5.07-.56.65-.75,1a40.77,40.77,0,0,1-7,12.57,31.39,31.39,0,0,1-17.31,10.9c-5.4,1.13-11.26,1-16.33-1.36a17.49,17.49,0,0,1-8.65-8.74,24,24,0,0,1-1.17-15.65,35.91,35.91,0,0,1,20.75-24.56Zm8.34,9.37a19.52,19.52,0,0,0-7.3,8.35c-1.77,3.72-2.88,7.94-2.2,12.06a7.28,7.28,0,0,0,4.71,6,10.66,10.66,0,0,0,8.72-1.49,18.83,18.83,0,0,0,6.82-9.13,14.07,14.07,0,0,1-5.4-3.49c-2.29-2.52-2.61-6.34-1.53-9.46a10.18,10.18,0,0,1,3-3.92,9.42,9.42,0,0,0-6.82,1.11Zm52.21,3.61A23.18,23.18,0,0,0,232.74,256c5-1.12,10-3.14,13.59-7,1.56-1.75,3-4.06,2.52-6.49a2.88,2.88,0,0,0-3.16-2.23c-2.89.23-5.3,2.16-7.2,4.21Zm106.71-8.84c5-4,11.18-7,17.7-6.71,2.89.1,6,1.37,7.41,4,1.84,3.37,1.31,7.48.12,11-2.37,6.56-4.91,13.08-7.3,19.64-.37,1.14-.69,2.64.28,3.58s2.61.6,3.85.22c3.23-1.09,5.93-3.29,8.41-5.56.23-.28.63-.5.65-.89a35.56,35.56,0,0,1,19.92-28.74,34.81,34.81,0,0,1,17.93-3.08,13.88,13.88,0,0,1,9.67,5.23,11.78,11.78,0,0,1,1.57,10.32c-1.45,4.92-5.11,8.83-9.12,11.85a49.32,49.32,0,0,1-18.49,8.07c.93,1.91,3.09,2.83,5,3.5,6.08,1.76,12.63,0,18-3a35.78,35.78,0,0,0,10.29-8.67c3-8.46,5.84-17,8.82-25.5.17-.68,1-.46,1.51-.53,6,0,12,0,17.94,0-.93,3-2.16,6-3,9,1.76-1.58,3.3-3.41,5.2-4.85a24,24,0,0,1,11.78-5.48c2.63-.35,5.64-.24,7.73,1.61s2.61,4.77,2.33,7.39c-.56,5-3.31,9.42-6.48,13.2a43.51,43.51,0,0,1-7,6.66c-.61.54-1.49.29-2.23.36-2.52-.09-5,.16-7.54-.13a28.54,28.54,0,0,0,4.15-6.49,12.7,12.7,0,0,0,1.21-6.55,2.22,2.22,0,0,0-2.15-1.9A7,7,0,0,0,459,245a33.2,33.2,0,0,0-6.73,7.92,14.6,14.6,0,0,0-1.74,3.2c-2.69,8-5.48,15.89-8.15,23.86-.21.45-.3,1.21-1,1.12-6.23,0-12.45.08-18.67,0,.81-3.22,2.28-6.23,3-9.47-1.66,1-3.1,2.31-4.75,3.33a43.84,43.84,0,0,1-20.57,7.5c-5.4.42-11.09-.36-15.74-3.3a18.25,18.25,0,0,1-7.27-9.06,53.06,53.06,0,0,1-12.69,9.24,26.81,26.81,0,0,1-13.23,3.19c-2.57-.13-5.29-.78-7.18-2.63a9.61,9.61,0,0,1-2.58-7.19,25.38,25.38,0,0,1,1.65-7.74c2.15-5.84,4.36-11.65,6.53-17.48a5.29,5.29,0,0,0,.29-3.48,2.07,2.07,0,0,0-2.37-1,12,12,0,0,0-5,3.1,43.06,43.06,0,0,0-6.35,7.95,29,29,0,0,0-3.35,6.25c-2.26,6.64-4.58,13.24-6.82,19.89-.18.36-.25,1-.81,1-6.26,0-12.53.06-18.79,0,2.17-6.8,4.63-13.51,6.91-20.27,3.45-10.1,7-20.17,10.39-30.29a42.07,42.07,0,0,1,5.83-.17c4.53,0,9.06-.06,13.57,0-1.06,3.25-2.32,6.45-3.27,9.75,1.73-1.4,3.17-3.12,5-4.45Zm59.6,6a21,21,0,0,0-6.56,7.42,19.14,19.14,0,0,0-2.42,6.78,24.12,24.12,0,0,0,5.32-1.52c3.57-1.42,7.06-3.51,9.31-6.71a7.17,7.17,0,0,0,1.49-4.95,2.82,2.82,0,0,0-2.42-2.37,7.43,7.43,0,0,0-4.71,1.35Z"/><path class="cls-2" d="M125.9,304.59a11.12,11.12,0,0,1,3.5.54,10,10,0,0,1,2.76,1.42,7.28,7.28,0,0,1,1.83,1.9,4.18,4.18,0,0,1,.69,2,.67.67,0,0,1-.63.65h-3.92a1.58,1.58,0,0,1-.67-.12,1.9,1.9,0,0,1-.52-.35l-.28-.3a3.21,3.21,0,0,0-.56-.44,4.11,4.11,0,0,0-.89-.38,4.51,4.51,0,0,0-1.31-.16,7.68,7.68,0,0,0-1.09.07,3.94,3.94,0,0,0-.93.24,1.7,1.7,0,0,0-.66.46,1.11,1.11,0,0,0-.26.74,1.05,1.05,0,0,0,.29.75,2.55,2.55,0,0,0,1,.54,14.65,14.65,0,0,0,1.77.5l2.75.56a15.5,15.5,0,0,1,2.86.83,7,7,0,0,1,2,1.26,5,5,0,0,1,1.23,1.79,6.56,6.56,0,0,1,.4,2.42,5.29,5.29,0,0,1-.69,2.7,6.33,6.33,0,0,1-1.93,2,9.62,9.62,0,0,1-2.92,1.29A14.35,14.35,0,0,1,126,326a12.07,12.07,0,0,1-3.7-.54,10.19,10.19,0,0,1-2.88-1.42,6.89,6.89,0,0,1-1.89-2,4.41,4.41,0,0,1-.72-2.23.63.63,0,0,1,.2-.46.6.6,0,0,1,.44-.2h3.91a1.62,1.62,0,0,1,.65.11,1.7,1.7,0,0,1,.48.31l.36.39a4.18,4.18,0,0,0,.64.54,4.32,4.32,0,0,0,1,.5,5.07,5.07,0,0,0,1.51.2,8.6,8.6,0,0,0,2.64-.34c.71-.23,1.06-.64,1.06-1.24a.91.91,0,0,0-.39-.74,4,4,0,0,0-1.17-.54,17.06,17.06,0,0,0-2-.5l-2.85-.59a8.28,8.28,0,0,1-4.49-2.19,5.74,5.74,0,0,1-1.42-4.08,5.51,5.51,0,0,1,.58-2.44,5.94,5.94,0,0,1,1.69-2,8.38,8.38,0,0,1,2.67-1.42,11,11,0,0,1,3.5-.52ZM151,325.68a.82.82,0,0,1-.81-.8V305.69a.82.82,0,0,1,.81-.8h3.91a.82.82,0,0,1,.81.8v19.19a.72.72,0,0,1-.24.56.78.78,0,0,1-.57.24Zm34.41,0a1.21,1.21,0,0,1-.82-.27,2,2,0,0,1-.4-.41l-6.83-10.17v10.05a.76.76,0,0,1-.24.56.78.78,0,0,1-.57.24h-3.92a.82.82,0,0,1-.81-.8V305.69a.82.82,0,0,1,.81-.8h3.11a1.16,1.16,0,0,1,.81.26,1.88,1.88,0,0,1,.41.42l6.83,10.16v-10a.82.82,0,0,1,.81-.8h3.91a.73.73,0,0,1,.57.24.74.74,0,0,1,.24.56v19.19a.72.72,0,0,1-.24.56.76.76,0,0,1-.57.24Zm24.84-12.89c0,.25,0,.61,0,1.06s0,.93,0,1.42,0,1,0,1.42,0,.83,0,1.09a5.56,5.56,0,0,0,.27,1.3,2.94,2.94,0,0,0,.66,1.1,3.3,3.3,0,0,0,1.13.76,4.5,4.5,0,0,0,1.71.28,4.92,4.92,0,0,0,1.67-.24,3.72,3.72,0,0,0,1.07-.58,2.38,2.38,0,0,0,.64-.76,4.14,4.14,0,0,0,.34-.77,2,2,0,0,1,.33-.67,1,1,0,0,1,.7-.19h3.91a.65.65,0,0,1,.65.65,6.13,6.13,0,0,1-.75,2.86,7.24,7.24,0,0,1-2,2.32,10,10,0,0,1-2.94,1.56A11.31,11.31,0,0,1,214,326a11,11,0,0,1-3.84-.64,8.9,8.9,0,0,1-2.88-1.74,7.61,7.61,0,0,1-1.83-2.57,8.86,8.86,0,0,1-.74-3.1c0-.81,0-1.68,0-2.62s0-1.82,0-2.67a8.62,8.62,0,0,1,.72-3.11,7.9,7.9,0,0,1,1.83-2.56,8.47,8.47,0,0,1,2.88-1.74,10.89,10.89,0,0,1,3.86-.64,11,11,0,0,1,3.65.58,9.58,9.58,0,0,1,2.94,1.56,7,7,0,0,1,2,2.32,6.18,6.18,0,0,1,.75,2.85.62.62,0,0,1-.19.46.63.63,0,0,1-.46.2h-3.91a.94.94,0,0,1-.7-.2,2,2,0,0,1-.33-.66,4.49,4.49,0,0,0-.34-.78,2.67,2.67,0,0,0-.64-.76,4,4,0,0,0-1.07-.58,5,5,0,0,0-1.67-.23,4.5,4.5,0,0,0-1.71.28,3,3,0,0,0-1.13.76,2.9,2.9,0,0,0-.66,1.09,6.35,6.35,0,0,0-.27,1.31Zm43,8.14a.82.82,0,0,1,.81.8v3.15a.76.76,0,0,1-.24.56.78.78,0,0,1-.57.24H239.14a.78.78,0,0,1-.57-.24.74.74,0,0,1-.24-.56V305.69a.71.71,0,0,1,.24-.56.74.74,0,0,1,.57-.24h13.91a.74.74,0,0,1,.57.24.77.77,0,0,1,.24.56v3.14a.8.8,0,0,1-.81.8h-9.2v3.21h8.53a.76.76,0,0,1,.57.24.74.74,0,0,1,.24.56v3.15a.71.71,0,0,1-.24.56.76.76,0,0,1-.57.24h-8.53v3.32h9.44Zm33-9.36a.76.76,0,0,1-.15-.6.84.84,0,0,1,.33-.53l6.42-4.91.58-.41a1.36,1.36,0,0,1,.79-.24h3.64a.8.8,0,0,1,.58.24.76.76,0,0,1,.23.56v19.19a.73.73,0,0,1-.23.56.8.8,0,0,1-.58.24H294a.82.82,0,0,1-.81-.8v-13l-3.55,2.67a.73.73,0,0,1-.6.16.79.79,0,0,1-.54-.31l-2.2-2.86Zm27.2.42a6.55,6.55,0,0,1,.73-3.11,7.19,7.19,0,0,1,1.95-2.33,9.15,9.15,0,0,1,2.81-1.46,10.79,10.79,0,0,1,6.51,0,9,9,0,0,1,2.8,1.46,7,7,0,0,1,2,2.33A6.55,6.55,0,0,1,331,312a6,6,0,0,1-.2,1.58,7.44,7.44,0,0,1-.51,1.37,11.32,11.32,0,0,1-.7,1.22q-.39.57-.78,1.11l-5.66,7.82a3.17,3.17,0,0,0-.34.37.71.71,0,0,1-.59.23h-4.75a.57.57,0,0,1-.44-.2.68.68,0,0,1-.16-.46.54.54,0,0,1,.05-.24.3.3,0,0,1,.1-.14l3.82-5.35a10.89,10.89,0,0,1-2.79-.78,8.56,8.56,0,0,1-2.35-1.52,7.35,7.35,0,0,1-1.61-2.18,6.47,6.47,0,0,1-.59-2.82Zm12,0a2.26,2.26,0,0,0-.27-1.09,2.72,2.72,0,0,0-.72-.83,3.25,3.25,0,0,0-1-.54,3.78,3.78,0,0,0-1.21-.19,3.83,3.83,0,0,0-1.21.19,3.48,3.48,0,0,0-1,.54,2.61,2.61,0,0,0-.72.83A2.38,2.38,0,0,0,319,312a2.3,2.3,0,0,0,.27,1.08,2.75,2.75,0,0,0,.72.84,3.46,3.46,0,0,0,1,.53,3.84,3.84,0,0,0,1.21.2,3.79,3.79,0,0,0,1.21-.2,3.23,3.23,0,0,0,1-.53,2.64,2.64,0,0,0,.72-.84A2.19,2.19,0,0,0,325.43,312Zm28.69-7.4a10.13,10.13,0,0,1,3.85.66,7.56,7.56,0,0,1,2.67,1.75,7.15,7.15,0,0,1,1.58,2.57,10.88,10.88,0,0,1,.62,3.07c0,.86.06,1.74.06,2.68s0,1.8-.06,2.62a11,11,0,0,1-.62,3.07,7.07,7.07,0,0,1-1.58,2.57,7.82,7.82,0,0,1-2.67,1.76,11.76,11.76,0,0,1-7.71,0,7.58,7.58,0,0,1-2.66-1.76A7,7,0,0,1,346,321a10.87,10.87,0,0,1-.61-3.07c0-.81-.06-1.68-.06-2.62s0-1.82.06-2.68a10.94,10.94,0,0,1,.61-3.07A7,7,0,0,1,347.6,307a7.66,7.66,0,0,1,2.66-1.75A10.18,10.18,0,0,1,354.12,304.59Zm3.19,13.19c.08-1.68.08-3.35,0-5a7.7,7.7,0,0,0-.22-1.37,3,3,0,0,0-.52-1.08,2.5,2.5,0,0,0-.95-.72,4.27,4.27,0,0,0-3,0,2.5,2.5,0,0,0-.95.72,3.22,3.22,0,0,0-.54,1.08,5.78,5.78,0,0,0-.21,1.37,41.54,41.54,0,0,0,0,5,6.28,6.28,0,0,0,.19,1.36,3,3,0,0,0,.54,1.08,2.57,2.57,0,0,0,1,.73,4.43,4.43,0,0,0,3,0,2.57,2.57,0,0,0,1-.73,3,3,0,0,0,.54-1.08,6.37,6.37,0,0,0,.19-1.36Zm37.87.74a6.68,6.68,0,0,1-.71,3.13,7.2,7.2,0,0,1-1.94,2.34,9.44,9.44,0,0,1-2.84,1.47,11.41,11.41,0,0,1-6.81,0A9.22,9.22,0,0,1,380,324a6.78,6.78,0,0,1-2-2.34,6.68,6.68,0,0,1-.72-3.13,6.21,6.21,0,0,1,.22-1.68,8.07,8.07,0,0,1,.56-1.42,13,13,0,0,1,.71-1.22l.75-1.06,5.7-7.66a4.5,4.5,0,0,0,.34-.38.7.7,0,0,1,.59-.22H391a.6.6,0,0,1,.44.19.7.7,0,0,1,.16.46.51.51,0,0,1,0,.24.56.56,0,0,1-.1.15l-3.88,5.22a11,11,0,0,1,3,.76,8.55,8.55,0,0,1,2.43,1.52,6.85,6.85,0,0,1,1.65,2.22,6.76,6.76,0,0,1,.59,2.87Zm-12.29,0a2.35,2.35,0,0,0,.3,1.16,2.61,2.61,0,0,0,.78.84,3.44,3.44,0,0,0,1.09.52,4.33,4.33,0,0,0,2.47,0,3.23,3.23,0,0,0,1.07-.52,2.77,2.77,0,0,0,.76-.84,2.25,2.25,0,0,0,.3-1.16,2.23,2.23,0,0,0-.3-1.16,2.81,2.81,0,0,0-.76-.85,3.23,3.23,0,0,0-1.07-.52,4.51,4.51,0,0,0-2.47,0,3.55,3.55,0,0,0-1.09.52,2.87,2.87,0,0,0-.78.85,2.33,2.33,0,0,0-.3,1.16Z"/></svg>