<svg id="Layer_1" data-name="Layer 1" xmlns="http://www.w3.org/2000/svg" viewBox="0 0 512 512"><defs><style>.cls-1{fill:#6b2160;}</style></defs><title>xebia-vector-logo_logoshape</title><path class="cls-1" d="M248.94,249.75H206.49A21.49,21.49,0,0,1,227,233.84c11.45,0,19,5.66,21.94,15.91m-42.68,14.58h62.3v-3.94c0-10.26-2.37-18.52-7.21-25.5-8.25-10.93-20.52-17.62-33.75-17.62-10.63,0-20.89,4.6-28.77,12.86a40,40,0,0,0-10.93,28.1,42.39,42.39,0,0,0,11.6,28.55c8,8,17.62,12,29.21,12,17.25,0,30.93-9.59,37.48-26.54H246.63c-3.72,6.32-10.63,9.59-18.51,9.59-12.71.44-21-6.54-21.86-17.47M296.67,259c0-13.3,9.59-23.27,22.23-23.27s22.6,10.63,22.6,22.9c0,12.86-9.59,22.9-23.57,22.9-11.23.08-21.26-9.89-21.26-22.53M296,225.82V194.66H278.16V297.49H296v-6.32a37.51,37.51,0,0,0,24.16,8.25,39.69,39.69,0,0,0,25.5-8.92,41.64,41.64,0,0,0,14.57-31.82,40.43,40.43,0,0,0-13.3-30.26c-7.22-7-16.58-10.26-26.84-10.26-9.45-.23-17.1,2-24.09,7.66m76.65-5.88H389.9v77.55H372.65Zm0-25.28H389.9v17.25H372.65Zm47.51,63a22,22,0,0,1,22.23-22.23c11.3,0,21.85,10,21.85,23.27,0,12-10.26,22.23-21.56,22.23-12.26,0-22.52-9.59-22.52-23.27m46.09,39.85H483.5V219.94H466.25v9.3c-5.28-7.66-13.31-11.31-24.61-11.31-11.6,0-20.89,3.72-28.77,12a40.9,40.9,0,0,0-10.93,28.55c0,23.27,17.25,40.75,40.07,40.75,12,0,19.86-3.28,24.17-11.31Z"/><path class="cls-1" d="M29.17,331.24H76.45l51.15-51,51,51h47.87L151.54,256.3l75.61-75.54H179.27L127.6,232.51,76.23,180.76H28.5l75.16,75.54Z"/></svg>